<svg width="97" height="35" viewBox="0 0 97 35" fill="none" xmlns="http://www.w3.org/2000/svg">
<path d="M0 28.4746H21.0861V17.7966H13.8566L22.291 10.678H24.7008L28.3156 14.2373V32.0339L25.3033 35H0V28.4746ZM12.6516 17.2034L10.8838 12.3757L25.9057 0L27.7131 4.74576L12.6516 17.2034ZM16.2843 6.52542H0V0L24.0414 0L16.2843 6.52542ZM66.8729 1.18644V0H74.1025V15.4237L87.3566 0H96.3934L74.1025 26.1017V26.6949V27.8814V35H66.8729V24.322V1.18644ZM83.7418 16.6102L95.791 35H86.7541L78.9221 22.5424L83.7418 16.6102ZM63.8606 32.0339V35H56.6311V20.1695L63.8606 1.18644V32.0339ZM50.0041 33.2203H44.582L31.3279 0H38.5574L47.5943 22.5424L56.6311 0H63.2582L50.0041 33.2203ZM37.9549 20.1695V35H30.7254V1.18644L37.9549 20.1695Z" fill="#332105"/>
</svg>
