<svg width="41" height="37" viewBox="0 0 41 37" fill="none" xmlns="http://www.w3.org/2000/svg">
<path d="M17.5742 1L30.2492 4.4125C26.4067 5.81465 25.1305 6.60625 22.4492 5.3875C19.768 4.16875 19.1655 2.89928 17.5742 1Z" stroke="#332105" stroke-linecap="round" stroke-linejoin="round"/>
<path d="M1 12.9434V14.8934" stroke="#332105" stroke-linecap="round"/>
<path d="M1 14.9766L31.7125 14.9766" stroke="#332105" stroke-linecap="round"/>
<path d="M1 12.9434L31.7125 12.9434" stroke="#332105" stroke-linecap="round"/>
<path d="M1 35.8564L40 35.8564" stroke="#332105" stroke-linecap="round"/>
<path d="M4.89844 29.5293V35.8564" stroke="#332105" stroke-linecap="round"/>
<path d="M2.94922 29.5176H4.89922" stroke="#332105" stroke-linecap="round"/>
<path d="M2.89844 29.5293V35.8564" stroke="#332105" stroke-linecap="round"/>
<path d="M29.2773 29.5176V35.8551" stroke="#332105" stroke-linecap="round"/>
<path d="M27.3242 29.5176H29.2742" stroke="#332105" stroke-linecap="round"/>
<path d="M27.3242 29.5176V35.8551" stroke="#332105" stroke-linecap="round"/>
<path d="M35.6133 25.1309V35.8559" stroke="#332105" stroke-linecap="round"/>
<path d="M33.6602 25.1309H35.6102" stroke="#332105" stroke-linecap="round"/>
<path d="M33.6602 25.1309V35.8559" stroke="#332105" stroke-linecap="round"/>
<path d="M3.92578 14.9766V29.529" stroke="#332105" stroke-linecap="round"/>
<path d="M28.3008 14.9766V29.529" stroke="#332105" stroke-linecap="round"/>
<path d="M34.6367 10.5059V25.0583" stroke="#332105" stroke-linecap="round"/>
<path d="M30.25 4.41309L34.6375 10.4342" stroke="#332105" stroke-linecap="round"/>
<path d="M31.7109 12.9434V14.8934" stroke="#332105" stroke-linecap="round"/>
<path d="M25.4462 25.3575L25.0164 24.8625L23.5079 20.4399C23.2509 19.6929 22.5936 19.1979 21.8604 19.1934H11.086C10.3528 19.1934 9.6955 19.6929 9.43847 20.4399L7.95104 24.8075L7.33163 25.4308C6.79228 25.9304 6.48047 26.6637 6.48047 27.4336V33.8773C6.48468 34.9314 7.27264 35.7838 8.24179 35.7838H9.3542C10.3233 35.7838 11.1113 34.9314 11.1155 33.8773V32.9424H21.5654V33.8773C21.5696 34.9314 22.3576 35.7838 23.3267 35.7838H24.4392C25.4083 35.7838 26.1963 34.9314 26.2005 33.8773V27.264C26.1963 26.5445 25.9266 25.857 25.4462 25.3575ZM10.2306 20.7516C10.3655 20.362 10.7068 20.11 11.086 20.11H21.8646C22.2438 20.11 22.5851 20.3666 22.72 20.7516L24.0346 24.6013H23.0529C22.8211 22.8827 21.3505 21.6957 19.7704 21.9523C18.5105 22.154 17.5203 23.231 17.3349 24.6013H8.91597L10.2306 20.7516ZM22.1933 24.6013H18.1861C18.4178 23.396 19.5049 22.626 20.6131 22.8781C21.4053 23.0614 22.0247 23.7351 22.1933 24.6013ZM10.2728 33.8773C10.2686 34.4273 9.85984 34.8672 9.3542 34.8672H8.24179C7.73614 34.8672 7.32742 34.4273 7.3232 33.8773V32.6766C7.57602 32.8553 7.9089 32.9424 8.24179 32.9424H10.2728V33.8773ZM25.3577 33.8773C25.3535 34.4273 24.9448 34.8672 24.4392 34.8672H23.3267C22.8211 34.8672 22.4124 34.4227 22.4082 33.8773V32.9424H24.4392C24.772 32.9424 25.1049 32.8553 25.3577 32.6766V33.8773ZM24.4392 32.0258H8.24179C7.74036 32.0304 7.32742 31.595 7.3232 31.045V27.4336C7.3232 26.9295 7.52967 26.4483 7.88362 26.1229C7.88784 26.1183 7.89626 26.1091 7.90048 26.1045L8.47354 25.5179H24.4307L24.8352 25.99C24.8395 25.9991 24.8521 26.0037 24.8563 26.0129C25.1723 26.3383 25.3535 26.792 25.3535 27.264V31.045H25.3577C25.3535 31.5904 24.9406 32.0304 24.4392 32.0258Z" fill="#332105"/>
<path d="M12.0426 27.3506H8.88231C8.65055 27.3506 8.46094 27.5568 8.46094 27.8089V30.192C8.46094 30.4441 8.65055 30.6504 8.88231 30.6504H12.0426C12.2743 30.6504 12.4639 30.4441 12.4639 30.192V27.8089C12.4639 27.5568 12.2743 27.3506 12.0426 27.3506ZM11.6212 29.7337H9.30367V28.2672H11.6212V29.7337Z" fill="#332105"/>
<path d="M23.8043 27.3506H20.644C20.4123 27.3506 20.2227 27.5568 20.2227 27.8089V30.192C20.2227 30.4441 20.4123 30.6504 20.644 30.6504H23.8043C24.036 30.6504 24.2256 30.4441 24.2256 30.192V27.8089C24.2256 27.5568 24.036 27.3506 23.8043 27.3506ZM23.3829 29.7337H21.0654V28.2672H23.3829V29.7337Z" fill="#332105"/>
<path d="M18.3902 29.2764H14.3198C14.0881 29.2764 13.8984 29.4826 13.8984 29.7347C13.8984 29.9867 14.0881 30.193 14.3198 30.193H18.3902C18.622 30.193 18.8116 29.9867 18.8116 29.7347C18.8116 29.4826 18.622 29.2764 18.3902 29.2764Z" fill="#332105"/>
<path d="M18.3902 27.8555H14.3198C14.0881 27.8555 13.8984 28.0617 13.8984 28.3138C13.8984 28.5658 14.0881 28.7721 14.3198 28.7721H18.3902C18.622 28.7721 18.8116 28.5658 18.8116 28.3138C18.8116 28.0617 18.622 27.8555 18.3902 27.8555Z" fill="#332105"/>
</svg>
