<svg width="34" height="29" viewBox="0 0 34 29" fill="none" xmlns="http://www.w3.org/2000/svg">
<path d="M1 27.4736L33 27.4736" stroke="#332105" stroke-linecap="round"/>
<path d="M26.9609 10.8115V27.5496" stroke="#332105" stroke-linecap="round"/>
<path d="M6.76172 10.8115V27.5496" stroke="#332105" stroke-linecap="round"/>
<path d="M3.875 1H9.06956V8.21467C9.06956 9.64911 7.90672 10.812 6.47228 10.812V10.812C5.03784 10.812 3.875 9.64911 3.875 8.21467V1Z" stroke="#332105" stroke-linecap="round"/>
<path d="M9.07031 1H14.2649V8.21467C14.2649 9.64911 13.102 10.812 11.6676 10.812V10.812C10.2332 10.812 9.07031 9.64911 9.07031 8.21467V1Z" stroke="#332105" stroke-linecap="round"/>
<path d="M14.2617 1H20.0335V7.92608C20.0335 9.51991 18.7414 10.812 17.1476 10.812V10.812C15.5538 10.812 14.2617 9.51991 14.2617 7.92609V1Z" stroke="#332105" stroke-linecap="round"/>
<path d="M20.0352 1H24.6525V8.50326C24.6525 9.77832 23.6189 10.812 22.3439 10.812V10.812C21.0688 10.812 20.0352 9.77832 20.0352 8.50326V1Z" stroke="#332105" stroke-linecap="round"/>
<path d="M24.6523 1H29.8469V8.21467C29.8469 9.64911 28.6841 10.812 27.2496 10.812V10.812C25.8152 10.812 24.6523 9.64911 24.6523 8.21467V1Z" stroke="#332105" stroke-linecap="round"/>
<rect x="9.64453" y="13.6982" width="5.77174" height="5.77174" stroke="#332105" stroke-linecap="round"/>
<rect x="18.8828" y="13.6982" width="5.19456" height="13.8522" stroke="#332105" stroke-linecap="round"/>
</svg>
