<svg width="34" height="19" viewBox="0 0 34 19" fill="none" xmlns="http://www.w3.org/2000/svg">
<path d="M27.8241 14.8865H32.6971C32.9939 14.8865 33.2344 14.646 33.2344 14.3494V11.4278C33.2344 10.0518 32.4826 8.78564 31.2747 8.12658C31.2543 8.11543 31.2333 8.10581 31.2117 8.0975L27.8241 6.78133L27.0912 6.38174L26.064 5.5255C24.5128 4.23272 22.7739 3.18411 20.9066 2.4153C17.6644 1.19095 14.178 0.751785 10.7334 1.13367L5.48421 1.68738L2.55348 1.99647C2.48965 2.00303 2.42757 2.02117 2.37008 2.05003C2.10449 2.1825 1.99672 2.50493 2.12919 2.77052L3.05276 4.6122L1.11861 7.02966C1.04255 7.12497 1.00101 7.24345 1.00101 7.36542V12.2003C1.00079 12.3426 1.05697 12.4793 1.15731 12.5803L3.16074 14.5835C5.121 14.6283 6.70568 14.6283 10.628 14.8865H23.6074H27.8241Z" fill="white" stroke="#332105" stroke-linecap="round" stroke-linejoin="round"/>
<circle cx="6.70454" cy="14.9457" r="3.16938" fill="white" stroke="#332105" stroke-linecap="round" stroke-linejoin="round"/>
<circle cx="26.3569" cy="14.9457" r="3.16938" fill="white" stroke="#332105" stroke-linecap="round" stroke-linejoin="round"/>
<path d="M11.457 1.31738L16.528 14.6288" stroke="#332105" stroke-linecap="round" stroke-linejoin="round"/>
<path d="M11.1445 13.0449H20.9696" stroke="#332105" stroke-linecap="round" stroke-linejoin="round"/>
<path d="M7.97266 8.60742H9.87428" stroke="#332105" stroke-linecap="round" stroke-linejoin="round"/>
<path d="M16.2148 8.60742H18.1165" stroke="#332105" stroke-linecap="round" stroke-linejoin="round"/>
<path d="M28.8945 13.0449H33.0147" stroke="#332105" stroke-linecap="round" stroke-linejoin="round"/>
<path d="M1.63672 13.0449H4.17222" stroke="#332105" stroke-linecap="round" stroke-linejoin="round"/>
<path d="M4.48828 1.95117L6.38991 6.07136L26.9909 6.3883" stroke="#332105" stroke-linecap="round" stroke-linejoin="round"/>
<path d="M1 8.29102H2.99906C3.55962 8.29102 3.94292 8.85717 3.73473 9.37763V9.37763C3.61441 9.67845 3.32305 9.87571 2.99906 9.87571H1" stroke="#332105"/>
</svg>
