<svg width="33" height="32" viewBox="0 0 33 32" fill="none" xmlns="http://www.w3.org/2000/svg">
<path d="M1 4.875V10.0417" stroke="#332105" stroke-linecap="round"/>
<path d="M1 10.042L32 10.042" stroke="#332105" stroke-linecap="round"/>
<path d="M1 31.3545L32 31.3545" stroke="#332105" stroke-linecap="round"/>
<path d="M1 4.875L16.5 1L32 4.875" stroke="#332105" stroke-linecap="round"/>
<path d="M7.45703 3.58301V10.0413" stroke="#332105" stroke-linecap="round"/>
<path d="M5.51953 24.8965V31.3548" stroke="#332105" stroke-linecap="round"/>
<path d="M2.9375 24.8965H5.52083" stroke="#332105" stroke-linecap="round"/>
<path d="M2.9375 24.8965V31.3548" stroke="#332105" stroke-linecap="round"/>
<path d="M30.0625 24.8965V31.3548" stroke="#332105" stroke-linecap="round"/>
<path d="M27.4766 24.8965H30.0599" stroke="#332105" stroke-linecap="round"/>
<path d="M27.4766 24.8965V31.3548" stroke="#332105" stroke-linecap="round"/>
<path d="M4.23047 10.042V24.8962" stroke="#332105" stroke-linecap="round"/>
<path d="M28.7695 10.042V24.8962" stroke="#332105" stroke-linecap="round"/>
<path d="M7.45703 3.58301L16.4987 9.71842" stroke="#332105" stroke-linecap="round"/>
<path d="M4.23047 16.1774L10.6888 10.042" stroke="#332105" stroke-linecap="round"/>
<path d="M28.7695 16.1774L22.3112 10.042" stroke="#332105" stroke-linecap="round"/>
<path d="M25.543 3.58301L16.5013 9.71842" stroke="#332105" stroke-linecap="round"/>
<path d="M16.5 1L16.5 10.0417" stroke="#332105" stroke-linecap="round"/>
<path d="M25.543 3.58301V10.0413" stroke="#332105" stroke-linecap="round"/>
<path d="M32 4.875V10.0417" stroke="#332105" stroke-linecap="round"/>
</svg>
