<svg width="36" height="43" viewBox="0 0 36 43" fill="none" xmlns="http://www.w3.org/2000/svg">
<path d="M20.125 9.86426L11.0938 9.86426" stroke="#332105" stroke-linecap="round"/>
<path d="M20.7773 12.5888L17.7041 14.0681" stroke="#332105" stroke-linecap="round"/>
<path d="M22.9104 14.8068L21.9648 16.2861" stroke="#332105" stroke-linecap="round"/>
<path d="M31.6545 6.91706L30.9453 7.41016" stroke="#332105" stroke-linecap="round"/>
<path d="M29.9983 4.20516L29.2891 5.19141" stroke="#332105" stroke-linecap="round"/>
<path d="M29.2895 15.0526L31.417 19.737" stroke="#332105" stroke-linecap="round"/>
<path d="M21.2534 1.0001L23.399 4.9448" stroke="#332105" stroke-linecap="round"/>
<path d="M21.2553 7.04006L19.1278 6.05387" stroke="#332105" stroke-linecap="round"/>
<path d="M26.5 15.4058V17.6221" stroke="#332105" stroke-linecap="round"/>
<path d="M26.5 1.55425V3.77051" stroke="#332105" stroke-linecap="round"/>
<path d="M31.8125 12.6353L33.4062 14.8516" stroke="#332105" stroke-linecap="round"/>
<path d="M32.3438 9.86426H35" stroke="#332105" stroke-linecap="round"/>
<path d="M1 35.9053H11.0938" stroke="#332105" stroke-linecap="round"/>
<path d="M20.125 35.9062L30.2188 35.9063" stroke="#332105" stroke-linecap="round"/>
<path d="M1 42H30.2188" stroke="#332105" stroke-linecap="round"/>
<path d="M15.875 17.6222L30.2187 22.0547" stroke="#332105" stroke-linecap="round"/>
<path d="M15.875 17.6222L1 22.0547" stroke="#332105" stroke-linecap="round"/>
<path d="M11.0938 35.9062V42.001" stroke="#332105" stroke-linecap="round"/>
<path d="M20.125 35.9062V42.001" stroke="#332105" stroke-linecap="round"/>
<path d="M3.125 35.9062H5.78125" stroke="#332105" stroke-linecap="round"/>
<path d="M26.5 35.9062H29.1562" stroke="#332105" stroke-linecap="round"/>
<path d="M30.2188 35.9062V42.001" stroke="#332105" stroke-linecap="round"/>
<path d="M27.5625 20.9463V35.906" stroke="#332105" stroke-linecap="round"/>
<path d="M27.5625 26.4867L21.7187 19.8379" stroke="#332105" stroke-linecap="round"/>
<path d="M30.2188 22.0547V23.7169" stroke="#332105" stroke-linecap="round"/>
<path d="M4.1875 20.9463V35.906" stroke="#332105" stroke-linecap="round"/>
<path d="M1 35.9053V42" stroke="#332105" stroke-linecap="round"/>
<path d="M4.1875 26.4867L9.5 19.8379" stroke="#332105" stroke-linecap="round"/>
<path d="M1 22.0537V23.7159" stroke="#332105" stroke-linecap="round"/>
<ellipse cx="26.5" cy="10.1415" rx="3.71875" ry="3.60142" stroke="#332105" stroke-linecap="round"/>
</svg>
