<svg width="26" height="31" viewBox="0 0 26 31" fill="none" xmlns="http://www.w3.org/2000/svg">
<path d="M24.5142 4.08568H21.9142V1.48573C21.9143 0.668533 21.2456 0 20.4288 0H1.48567C0.668534 0 0 0.668533 0 1.48573V25.2571C0 26.0742 0.668534 26.7428 1.48573 26.7428H4.08574V29.3428C4.08574 30.16 4.75397 30.8286 5.57147 30.8286H18.1997C19.0164 30.8286 20.1723 30.3702 20.767 29.8105L24.9173 25.9038C25.5127 25.3441 25.9993 24.2172 25.9993 23.4001L26 5.57153C25.9999 4.75428 25.3313 4.08568 24.5142 4.08568ZM4.08562 5.57147V25.6286H1.48567C1.28438 25.6286 1.11428 25.4585 1.11428 25.2572V1.48573C1.11428 1.28444 1.28438 1.11434 1.48567 1.11434H20.4289C20.6298 1.11434 20.8003 1.28444 20.8003 1.48573V4.08574H5.57135C4.75385 4.08574 4.08562 4.75428 4.08562 5.57147ZM24.1536 25.0925L20.0033 28.9989C19.9182 29.0788 19.8075 29.1572 19.6853 29.2318V25.8142C19.6853 25.5591 19.7882 25.3295 19.9579 25.1587C20.1292 24.9889 20.3587 24.8857 20.6139 24.8857H24.33C24.2724 24.964 24.2134 25.0361 24.1536 25.0925ZM24.8849 23.3999C24.8849 23.5102 24.8648 23.638 24.8344 23.7713H20.6138C19.4866 23.7735 18.5732 24.6869 18.5709 25.8142V29.6692C18.4383 29.696 18.3106 29.7141 18.1995 29.7141H5.57135V29.7142C5.36964 29.7142 5.19996 29.5441 5.19996 29.3428V5.57141C5.19996 5.37012 5.3697 5.20002 5.57135 5.20002H24.5142C24.7154 5.20002 24.8855 5.37012 24.8855 5.57141L24.8849 23.3999Z" fill="#332105"/>
<path d="M20.4301 9.28516H9.6587C9.35078 9.28516 9.10156 9.53437 9.10156 9.8423C9.10156 10.1502 9.35084 10.3994 9.6587 10.3994H20.4301C20.7376 10.3994 20.9872 10.1502 20.9872 9.8423C20.9872 9.53437 20.7376 9.28516 20.4301 9.28516Z" fill="#332105"/>
<path d="M20.4301 16.7139H9.6587C9.35078 16.7139 9.10156 16.9631 9.10156 17.271C9.10156 17.5789 9.35084 17.8281 9.6587 17.8281H20.4301C20.7376 17.8281 20.9872 17.5789 20.9872 17.271C20.9872 16.963 20.7376 16.7139 20.4301 16.7139Z" fill="#332105"/>
<path d="M15.6015 20.4287H9.6587C9.35078 20.4287 9.10156 20.6779 9.10156 20.9859C9.10156 21.2938 9.35078 21.543 9.6587 21.543H15.6015C15.9091 21.543 16.1583 21.2938 16.1583 20.9859C16.1583 20.6779 15.9091 20.4287 15.6015 20.4287Z" fill="#332105"/>
<path d="M20.4301 13H9.6587C9.35078 13 9.10156 13.2492 9.10156 13.5571C9.10156 13.8651 9.35084 14.1143 9.6587 14.1143H20.4301C20.7376 14.1143 20.9872 13.8651 20.9872 13.5571C20.9872 13.2492 20.7376 13 20.4301 13Z" fill="#332105"/>
</svg>
