<svg width="202" height="143" viewBox="0 0 202 143" fill="none" xmlns="http://www.w3.org/2000/svg">
<path d="M0 0H202V143H0V0Z" fill="#FFCB38"/>
<path d="M140.692 34.8427C140.576 35.9091 140.194 36.725 139.545 37.2907C138.9 37.8563 138.04 38.1391 136.965 38.1391C136.214 38.1391 135.548 37.9513 134.969 37.5758C134.394 37.2003 133.949 36.6694 133.634 35.9832C133.318 35.2924 133.158 34.5043 133.154 33.6188V32.3044C133.154 31.405 133.311 30.6075 133.627 29.9121C133.942 29.2167 134.394 28.6812 134.983 28.3057C135.576 27.9255 136.258 27.7354 137.027 27.7354C138.112 27.7354 138.968 28.0298 139.594 28.6186C140.224 29.2028 140.59 30.0118 140.692 31.0457H139.83C139.617 29.3256 138.683 28.4656 137.027 28.4656C136.109 28.4656 135.377 28.8087 134.83 29.4949C134.287 30.181 134.016 31.1291 134.016 32.3392V33.577C134.016 34.7454 134.28 35.6773 134.809 36.3727C135.342 37.0681 136.061 37.4158 136.965 37.4158C137.86 37.4158 138.534 37.2026 138.989 36.776C139.443 36.3449 139.723 35.7004 139.83 34.8427H140.692ZM147.327 38C147.243 37.7636 147.19 37.4135 147.167 36.9499C146.875 37.3301 146.502 37.6245 146.047 37.8331C145.597 38.0371 145.12 38.1391 144.615 38.1391C143.891 38.1391 143.305 37.9374 142.855 37.5341C142.41 37.1307 142.188 36.6207 142.188 36.0041C142.188 35.2716 142.491 34.6921 143.099 34.2655C143.711 33.839 144.561 33.6257 145.651 33.6257H147.16V32.7703C147.16 32.2325 146.993 31.8106 146.659 31.5047C146.33 31.194 145.848 31.0387 145.213 31.0387C144.633 31.0387 144.153 31.1871 143.773 31.4838C143.393 31.7805 143.203 32.1375 143.203 32.5548L142.368 32.5478C142.368 31.9497 142.646 31.4328 143.203 30.997C143.759 30.5565 144.443 30.3363 145.254 30.3363C146.094 30.3363 146.754 30.5473 147.236 30.9692C147.723 31.3864 147.974 31.9706 147.987 32.7217V36.2823C147.987 37.0102 148.064 37.5549 148.217 37.9165V38H147.327ZM144.712 37.4019C145.268 37.4019 145.764 37.2675 146.2 36.9986C146.641 36.7297 146.961 36.3704 147.16 35.9207V34.2655H145.672C144.842 34.2748 144.193 34.4278 143.724 34.7245C143.256 35.0166 143.022 35.4199 143.022 35.9346C143.022 36.3565 143.177 36.7065 143.488 36.9847C143.803 37.2628 144.211 37.4019 144.712 37.4019ZM154.378 36.8734L157.369 30.4754H158.398V38H157.564V31.8246L154.671 38H154.079L151.131 31.6855V38H150.303V30.4754H151.395L154.378 36.8734ZM165.38 38C165.297 37.7636 165.243 37.4135 165.22 36.9499C164.928 37.3301 164.555 37.6245 164.101 37.8331C163.651 38.0371 163.173 38.1391 162.668 38.1391C161.945 38.1391 161.358 37.9374 160.909 37.5341C160.463 37.1307 160.241 36.6207 160.241 36.0041C160.241 35.2716 160.545 34.6921 161.152 34.2655C161.764 33.839 162.615 33.6257 163.704 33.6257H165.213V32.7703C165.213 32.2325 165.046 31.8106 164.713 31.5047C164.383 31.194 163.901 31.0387 163.266 31.0387C162.687 31.0387 162.207 31.1871 161.827 31.4838C161.446 31.7805 161.256 32.1375 161.256 32.5548L160.422 32.5478C160.422 31.9497 160.7 31.4328 161.256 30.997C161.813 30.5565 162.496 30.3363 163.308 30.3363C164.147 30.3363 164.808 30.5473 165.29 30.9692C165.777 31.3864 166.027 31.9706 166.041 32.7217V36.2823C166.041 37.0102 166.117 37.5549 166.27 37.9165V38H165.38ZM162.765 37.4019C163.322 37.4019 163.818 37.2675 164.254 36.9986C164.694 36.7297 165.014 36.3704 165.213 35.9207V34.2655H163.725C162.895 34.2748 162.246 34.4278 161.778 34.7245C161.31 35.0166 161.075 35.4199 161.075 35.9346C161.075 36.3565 161.231 36.7065 161.541 36.9847C161.857 37.2628 162.265 37.4019 162.765 37.4019ZM174.317 34.3142C174.317 35.4872 174.057 36.419 173.538 37.1098C173.018 37.796 172.323 38.1391 171.451 38.1391C170.422 38.1391 169.634 37.7775 169.087 37.0542V40.893H168.259V30.4754H169.031L169.073 31.5394C169.615 30.7374 170.401 30.3363 171.43 30.3363C172.33 30.3363 173.035 30.6771 173.545 31.3586C174.059 32.0401 174.317 32.9859 174.317 34.196V34.3142ZM173.482 34.1682C173.482 33.2085 173.285 32.4504 172.891 31.8941C172.497 31.3377 171.947 31.0596 171.243 31.0596C170.733 31.0596 170.295 31.1824 169.928 31.4282C169.562 31.6739 169.282 32.0309 169.087 32.4991V36.1084C169.286 36.5396 169.571 36.8688 169.942 37.0959C170.313 37.3231 170.751 37.4367 171.257 37.4367C171.957 37.4367 172.501 37.1585 172.891 36.6022C173.285 36.0412 173.482 35.2299 173.482 34.1682ZM180.916 38C180.833 37.7636 180.779 37.4135 180.756 36.9499C180.464 37.3301 180.091 37.6245 179.637 37.8331C179.187 38.0371 178.709 38.1391 178.204 38.1391C177.481 38.1391 176.894 37.9374 176.445 37.5341C175.999 37.1307 175.777 36.6207 175.777 36.0041C175.777 35.2716 176.081 34.6921 176.688 34.2655C177.3 33.839 178.151 33.6257 179.24 33.6257H180.749V32.7703C180.749 32.2325 180.582 31.8106 180.249 31.5047C179.919 31.194 179.437 31.0387 178.802 31.0387C178.223 31.0387 177.743 31.1871 177.363 31.4838C176.982 31.7805 176.792 32.1375 176.792 32.5548L175.958 32.5478C175.958 31.9497 176.236 31.4328 176.792 30.997C177.349 30.5565 178.032 30.3363 178.844 30.3363C179.683 30.3363 180.344 30.5473 180.826 30.9692C181.313 31.3864 181.563 31.9706 181.577 32.7217V36.2823C181.577 37.0102 181.653 37.5549 181.806 37.9165V38H180.916ZM178.301 37.4019C178.858 37.4019 179.354 37.2675 179.79 36.9986C180.23 36.7297 180.55 36.3704 180.749 35.9207V34.2655H179.261C178.431 34.2748 177.782 34.4278 177.314 34.7245C176.846 35.0166 176.611 35.4199 176.611 35.9346C176.611 36.3565 176.767 36.7065 177.077 36.9847C177.393 37.2628 177.801 37.4019 178.301 37.4019Z" fill="#332105"/>
<path d="M20.415 113.17C20.415 112.59 20.2055 112.133 19.7866 111.799C19.3676 111.465 18.7709 111.297 17.9965 111.297C17.3279 111.297 16.7757 111.475 16.3398 111.831C15.9039 112.186 15.686 112.637 15.686 113.183H14.9052C14.9052 112.692 15.0385 112.254 15.3051 111.869C15.5717 111.479 15.9441 111.177 16.4223 110.961C16.9047 110.741 17.4295 110.631 17.9965 110.631C18.9952 110.631 19.7781 110.853 20.3452 111.297C20.9122 111.742 21.1957 112.372 21.1957 113.189C21.1957 113.659 21.0455 114.078 20.7451 114.446C20.4446 114.814 20.0405 115.087 19.5327 115.265C20.7345 115.586 21.3354 116.329 21.3354 117.493C21.3354 118.292 21.0328 118.931 20.4277 119.41C19.8268 119.888 19.0164 120.127 17.9965 120.127C17.3787 120.127 16.8159 120.011 16.3081 119.778C15.8002 119.541 15.4173 119.223 15.1591 118.826C14.901 118.424 14.7719 117.96 14.7719 117.436H15.5527C15.5527 118.028 15.7833 118.517 16.2446 118.902C16.7058 119.283 17.2898 119.473 17.9965 119.473C18.7963 119.473 19.4226 119.298 19.8754 118.946C20.3282 118.591 20.5546 118.115 20.5546 117.518C20.5546 116.888 20.3536 116.418 19.9516 116.109C19.5496 115.796 18.9296 115.635 18.0917 115.626H16.9111V114.954H18.0537C18.8238 114.949 19.4099 114.799 19.812 114.503C20.214 114.202 20.415 113.758 20.415 113.17ZM27.2578 120C27.1816 119.784 27.1329 119.465 27.1118 119.042C26.8452 119.389 26.5045 119.657 26.0898 119.848C25.6793 120.034 25.2434 120.127 24.7822 120.127C24.122 120.127 23.5867 119.943 23.1762 119.575C22.77 119.207 22.5668 118.741 22.5668 118.178C22.5668 117.51 22.844 116.981 23.3984 116.591C23.957 116.202 24.7335 116.007 25.728 116.007H27.1054V115.227C27.1054 114.736 26.9531 114.351 26.6484 114.071C26.3479 113.788 25.9078 113.646 25.3281 113.646C24.7991 113.646 24.3611 113.781 24.0141 114.052C23.6671 114.323 23.4936 114.649 23.4936 115.03L22.7319 115.023C22.7319 114.478 22.9858 114.006 23.4936 113.608C24.0014 113.206 24.6256 113.005 25.3662 113.005C26.1321 113.005 26.7351 113.197 27.1752 113.583C27.6196 113.963 27.8481 114.497 27.8608 115.182V118.432C27.8608 119.097 27.9306 119.594 28.0703 119.924V120H27.2578ZM24.871 119.454C25.3789 119.454 25.8317 119.331 26.2294 119.086C26.6315 118.84 26.9234 118.513 27.1054 118.102V116.591H25.747C24.9895 116.6 24.3971 116.739 23.9697 117.01C23.5423 117.277 23.3286 117.645 23.3286 118.115C23.3286 118.5 23.4703 118.819 23.7539 119.073C24.0416 119.327 24.414 119.454 24.871 119.454ZM29.9746 120V113.132H32.4946C33.3663 113.132 34.0349 113.288 34.5004 113.602C34.9659 113.91 35.1987 114.365 35.1987 114.966C35.1987 115.309 35.095 115.616 34.8876 115.887C34.6803 116.153 34.3777 116.348 33.9799 116.471C34.4285 116.555 34.7882 116.748 35.059 117.048C35.3341 117.349 35.4716 117.698 35.4716 118.096C35.4716 118.701 35.2473 119.171 34.7988 119.505C34.3544 119.835 33.7239 120 32.9072 120H29.9746ZM30.7299 116.839V119.365H32.9326C33.5039 119.365 33.944 119.255 34.2529 119.035C34.5618 118.815 34.7163 118.498 34.7163 118.083C34.7163 117.702 34.5618 117.4 34.2529 117.175C33.944 116.951 33.5039 116.839 32.9326 116.839H30.7299ZM30.7299 116.204H32.6533C33.8466 116.187 34.4433 115.781 34.4433 114.985C34.4433 114.566 34.2783 114.262 33.9482 114.071C33.6223 113.877 33.1378 113.779 32.4946 113.779H30.7299V116.204ZM36.7475 116.464C36.7475 115.804 36.8745 115.21 37.1284 114.681C37.3865 114.152 37.7483 113.741 38.2138 113.449C38.6835 113.153 39.2146 113.005 39.8071 113.005C40.7211 113.005 41.4617 113.326 42.0288 113.97C42.5958 114.609 42.8793 115.457 42.8793 116.515V116.674C42.8793 117.338 42.7503 117.937 42.4921 118.47C42.2382 118.999 41.8785 119.408 41.413 119.695C40.9475 119.983 40.4165 120.127 39.8198 120.127C38.9099 120.127 38.1694 119.807 37.5981 119.168C37.031 118.525 36.7475 117.675 36.7475 116.617V116.464ZM37.5092 116.674C37.5092 117.495 37.7208 118.17 38.144 118.699C38.5714 119.223 39.13 119.486 39.8198 119.486C40.5053 119.486 41.0597 119.223 41.4829 118.699C41.9103 118.17 42.124 117.474 42.124 116.61V116.464C42.124 115.94 42.0266 115.459 41.832 115.023C41.6373 114.588 41.3644 114.251 41.0131 114.014C40.6619 113.773 40.2599 113.652 39.8071 113.652C39.13 113.652 38.5777 113.919 38.1503 114.452C37.7229 114.981 37.5092 115.675 37.5092 116.534V116.674ZM43.8378 119.359L44.1743 118.921C44.7075 118.197 45.0143 117.139 45.0947 115.747L45.2153 113.132H49.2714V119.359H49.9824V122.019H49.227V120H44.0664V122.019H43.3364L43.3427 119.359H43.8378ZM44.7138 119.359H48.5097V113.843H45.9389L45.8564 115.626C45.7802 117.264 45.3994 118.508 44.7138 119.359ZM55.8222 110.758L59.2309 118.915L62.6523 110.758H63.6933V120H62.9125V115.976L62.976 111.85L59.5356 120H58.9326L55.5048 111.881L55.5683 115.95V120H54.7875V110.758H55.8222ZM68.5175 120.127C67.9335 120.127 67.4046 119.983 66.9306 119.695C66.4609 119.408 66.0948 119.008 65.8325 118.496C65.5701 117.979 65.4389 117.402 65.4389 116.763V116.49C65.4389 115.83 65.5659 115.235 65.8198 114.706C66.0779 114.177 66.4355 113.762 66.8925 113.462C67.3496 113.157 67.8447 113.005 68.3779 113.005C69.2115 113.005 69.8717 113.291 70.3583 113.862C70.8492 114.429 71.0947 115.205 71.0947 116.191V116.617H66.1943V116.763C66.1943 117.541 66.4165 118.191 66.8608 118.711C67.3094 119.228 67.8722 119.486 68.5493 119.486C68.9555 119.486 69.3131 119.412 69.622 119.264C69.9352 119.116 70.2187 118.879 70.4726 118.553L70.9487 118.915C70.3901 119.723 69.5797 120.127 68.5175 120.127ZM68.3779 113.652C67.8066 113.652 67.3242 113.862 66.9306 114.281C66.5413 114.7 66.3043 115.263 66.2197 115.969H70.3393V115.887C70.3181 115.227 70.1298 114.689 69.7744 114.274C69.4189 113.86 68.9534 113.652 68.3779 113.652ZM77.4296 113.779H74.9287V120H74.1669V113.779H71.7612V113.132H77.4296V113.779ZM82.914 120C82.8378 119.784 82.7892 119.465 82.768 119.042C82.5014 119.389 82.1608 119.657 81.746 119.848C81.3356 120.034 80.8997 120.127 80.4384 120.127C79.7783 120.127 79.2429 119.943 78.8325 119.575C78.4262 119.207 78.2231 118.741 78.2231 118.178C78.2231 117.51 78.5003 116.981 79.0546 116.591C79.6132 116.202 80.3898 116.007 81.3842 116.007H82.7617V115.227C82.7617 114.736 82.6093 114.351 82.3046 114.071C82.0042 113.788 81.5641 113.646 80.9843 113.646C80.4554 113.646 80.0174 113.781 79.6704 114.052C79.3234 114.323 79.1498 114.649 79.1498 115.03L78.3881 115.023C78.3881 114.478 78.642 114.006 79.1498 113.608C79.6577 113.206 80.2818 113.005 81.0224 113.005C81.7884 113.005 82.3914 113.197 82.8315 113.583C83.2758 113.963 83.5043 114.497 83.517 115.182V118.432C83.517 119.097 83.5869 119.594 83.7265 119.924V120H82.914ZM80.5273 119.454C81.0351 119.454 81.4879 119.331 81.8857 119.086C82.2877 118.84 82.5797 118.513 82.7617 118.102V116.591H81.4033C80.6458 116.6 80.0533 116.739 79.6259 117.01C79.1985 117.277 78.9848 117.645 78.9848 118.115C78.9848 118.5 79.1266 118.819 79.4101 119.073C79.6979 119.327 80.0703 119.454 80.5273 119.454ZM90.8295 113.132V120H90.0678V113.786H87.2558L87.1352 116.356C87.0844 117.309 86.9892 118.036 86.8496 118.54C86.7099 119.039 86.5026 119.408 86.2275 119.645C85.9524 119.882 85.5864 120 85.1293 120H84.8373V119.327L85.0722 119.314C85.5081 119.306 85.8212 119.094 86.0117 118.68C86.2021 118.265 86.3269 117.524 86.3862 116.458L86.5258 113.132H90.8295ZM98.1547 113.132V120H97.393V113.786H94.581L94.4604 116.356C94.4096 117.309 94.3144 118.036 94.1748 118.54C94.0351 119.039 93.8277 119.408 93.5527 119.645C93.2776 119.882 92.9116 120 92.4545 120H92.1625V119.327L92.3974 119.314C92.8333 119.306 93.1464 119.094 93.3369 118.68C93.5273 118.265 93.6521 117.524 93.7114 116.458L93.851 113.132H98.1547ZM99.7797 116.464C99.7797 115.804 99.9067 115.21 100.161 114.681C100.419 114.152 100.781 113.741 101.246 113.449C101.716 113.153 102.247 113.005 102.839 113.005C103.753 113.005 104.494 113.326 105.061 113.97C105.628 114.609 105.912 115.457 105.912 116.515V116.674C105.912 117.338 105.782 117.937 105.524 118.47C105.27 118.999 104.911 119.408 104.445 119.695C103.98 119.983 103.449 120.127 102.852 120.127C101.942 120.127 101.202 119.807 100.63 119.168C100.063 118.525 99.7797 117.675 99.7797 116.617V116.464ZM100.541 116.674C100.541 117.495 100.753 118.17 101.176 118.699C101.604 119.223 102.162 119.486 102.852 119.486C103.538 119.486 104.092 119.223 104.515 118.699C104.942 118.17 105.156 117.474 105.156 116.61V116.464C105.156 115.94 105.059 115.459 104.864 115.023C104.67 114.588 104.397 114.251 104.045 114.014C103.694 113.773 103.292 113.652 102.839 113.652C102.162 113.652 101.61 113.919 101.183 114.452C100.755 114.981 100.541 115.675 100.541 116.534V116.674ZM109.352 116.852H108.298V120H107.53V113.132H108.298V116.179H109.339L111.859 113.132H112.818L109.999 116.464L113.129 120H112.126L109.352 116.852ZM113.668 116.464C113.668 115.804 113.795 115.21 114.049 114.681C114.307 114.152 114.669 113.741 115.135 113.449C115.604 113.153 116.136 113.005 116.728 113.005C117.642 113.005 118.383 113.326 118.95 113.97C119.517 114.609 119.8 115.457 119.8 116.515V116.674C119.8 117.338 119.671 117.937 119.413 118.47C119.159 118.999 118.799 119.408 118.334 119.695C117.868 119.983 117.337 120.127 116.741 120.127C115.831 120.127 115.09 119.807 114.519 119.168C113.952 118.525 113.668 117.675 113.668 116.617V116.464ZM114.43 116.674C114.43 117.495 114.642 118.17 115.065 118.699C115.492 119.223 116.051 119.486 116.741 119.486C117.426 119.486 117.981 119.223 118.404 118.699C118.831 118.17 119.045 117.474 119.045 116.61V116.464C119.045 115.94 118.948 115.459 118.753 115.023C118.558 114.588 118.285 114.251 117.934 114.014C117.583 113.773 117.181 113.652 116.728 113.652C116.051 113.652 115.499 113.919 115.071 114.452C114.644 114.981 114.43 115.675 114.43 116.534V116.674ZM126.649 120H125.888V116.852H122.187V120H121.425V113.132H122.187V116.21H125.888V113.132H126.649V120ZM131.226 119.486C131.755 119.486 132.197 119.338 132.553 119.042C132.912 118.741 133.107 118.354 133.137 117.88H133.867C133.845 118.299 133.714 118.682 133.473 119.029C133.232 119.372 132.91 119.64 132.508 119.835C132.11 120.03 131.683 120.127 131.226 120.127C130.325 120.127 129.609 119.814 129.081 119.188C128.556 118.561 128.293 117.719 128.293 116.661V116.433C128.293 115.756 128.412 115.157 128.649 114.636C128.886 114.116 129.224 113.714 129.664 113.43C130.109 113.147 130.627 113.005 131.22 113.005C131.973 113.005 132.593 113.229 133.08 113.678C133.57 114.126 133.833 114.717 133.867 115.449H133.137C133.103 114.911 132.908 114.478 132.553 114.147C132.201 113.817 131.757 113.652 131.22 113.652C130.534 113.652 130.001 113.9 129.62 114.395C129.243 114.89 129.055 115.584 129.055 116.477V116.699C129.055 117.575 129.243 118.259 129.62 118.75C130.001 119.24 130.536 119.486 131.226 119.486ZM140.322 113.779H137.821V120H137.06V113.779H134.654V113.132H140.322V113.779ZM147.095 116.636C147.095 117.706 146.858 118.557 146.384 119.188C145.91 119.814 145.275 120.127 144.48 120.127C143.54 120.127 142.821 119.797 142.322 119.137V122.641H141.566V113.132H142.271L142.309 114.103C142.804 113.371 143.521 113.005 144.461 113.005C145.282 113.005 145.925 113.316 146.391 113.938C146.86 114.56 147.095 115.423 147.095 116.528V116.636ZM146.333 116.502C146.333 115.626 146.154 114.935 145.794 114.427C145.434 113.919 144.933 113.665 144.289 113.665C143.824 113.665 143.424 113.777 143.09 114.001C142.755 114.226 142.499 114.552 142.322 114.979V118.273C142.504 118.667 142.764 118.967 143.102 119.175C143.441 119.382 143.841 119.486 144.302 119.486C144.941 119.486 145.438 119.232 145.794 118.724C146.154 118.212 146.333 117.472 146.333 116.502ZM150.885 118.908L152.891 113.132H153.709L150.777 121.168L150.624 121.523C150.248 122.357 149.666 122.774 148.879 122.774C148.697 122.774 148.502 122.744 148.295 122.685L148.289 122.057L148.682 122.095C149.054 122.095 149.355 122.002 149.583 121.815C149.816 121.633 150.013 121.318 150.174 120.87L150.51 119.943L147.92 113.132H148.752L150.885 118.908ZM156.756 116.852H155.703V120H154.935V113.132H155.703V116.179H156.744L159.264 113.132H160.222L157.404 116.464L160.533 120H159.53L156.756 116.852ZM161.682 113.132H162.444V119.359H166.144V113.132H166.906V119.359H167.604L167.547 122.038H166.849V120H161.682V113.132ZM173.546 113.132H174.308V120H173.546V114.357L169.839 120H169.083V113.132H169.839V118.781L173.546 113.132ZM180.858 113.132H181.62V120H180.858V114.357L177.151 120H176.396V113.132H177.151V118.781L180.858 113.132ZM180.82 110.656C180.82 111.143 180.653 111.536 180.319 111.837C179.989 112.137 179.544 112.288 178.986 112.288C178.436 112.288 177.991 112.139 177.653 111.843C177.318 111.543 177.151 111.147 177.151 110.656H177.799C177.799 111.007 177.902 111.276 178.11 111.462C178.321 111.649 178.613 111.742 178.986 111.742C179.358 111.742 179.648 111.644 179.855 111.45C180.067 111.255 180.173 110.991 180.173 110.656H180.82Z" fill="#332105"/>
<path d="M15 92.6271H51.75V74.017H39.15L53.85 61.6102H58.05L64.35 67.8136V98.8305L59.1 104H15V92.6271ZM37.05 72.9831L33.969 64.5691L60.15 43L63.3 51.2712L37.05 72.9831ZM43.3813 54.3729H15V43H56.9007L43.3813 54.3729ZM131.55 45.0678V43H144.15V69.8814L167.25 43H183L144.15 88.4915V89.5254V91.5932V104H131.55V85.3898V45.0678ZM160.95 71.9492L181.95 104H166.2L152.55 82.2881L160.95 71.9492ZM126.3 98.8305V104H113.7V78.1525L126.3 45.0678V98.8305ZM102.15 100.898H92.7L69.6 43H82.2L97.95 82.2881L113.7 43H125.25L102.15 100.898ZM81.15 78.1525V104H68.55V45.0678L81.15 78.1525Z" fill="#332105"/>
</svg>
