<svg width="66" height="86" viewBox="0 0 66 86" fill="none" xmlns="http://www.w3.org/2000/svg">
<path d="M9 55.5H57L31.5 86L9 55.5Z" fill="#FFAF38"/>
<path d="M0 33C0 14.7746 14.7746 0 33 0C51.2254 0 66 14.7746 66 33C66 51.2254 51.2254 66 33 66C14.7746 66 0 51.2254 0 33Z" fill="#FFCB38"/>
<path d="M8 38.5068H19.3117V32.7829H14.8556L13.8272 29.416L16.5694 26.7224H8V23.3555H21.7111L23.0822 26.3857L19.9972 29.0793H21.3683L23.0822 31.0995V40.5269L21.7111 41.8737H8V38.5068H8ZM43.9916 24.0289V23.3555H47.7622V31.7729L54.9605 23.3555H60.1022L52.9039 31.7729L59.4166 41.8737H54.6177L50.1616 35.1398L47.7622 37.8334V41.8737H43.9916V36.4866V24.0289ZM42.2778 40.5269V41.8737H38.5072V33.4563L35.4222 41.2003H31.6517L28.5667 33.4563V41.8737H24.4533V23.3555H28.5667L33.3655 35.4765L38.5072 23.3555H42.2778V40.5269Z" fill="#332105"/>
<path d="M13.7812 29.3185L21.3141 22.5703" stroke="#FFCB38" stroke-width="0.5" stroke-linecap="round"/>
<path d="M15.9805 32.9279L23.5133 26.1797" stroke="#FFCB38" stroke-width="0.5" stroke-linecap="round"/>
<path d="M32.1704 42.5L23.5391 21" stroke="#FFCB38" stroke-width="0.5" stroke-linecap="round"/>
<path d="M34.9911 42.5L43.3086 21" stroke="#FFCB38" stroke-width="0.5" stroke-linecap="round"/>
<path d="M47.9928 37.9485L60.3906 22.8828" stroke="#FFCB38" stroke-width="0.5" stroke-linecap="round"/>
</svg>
