<svg width="51" height="51" viewBox="0 0 51 51" fill="none" xmlns="http://www.w3.org/2000/svg">
<rect width="51" height="51" fill="#FFCB38"/>
<path d="M41.2167 29.2803L46 31.6865L25.5 41.999L5 31.6865L9.78333 29.2803H41.2167Z" fill="#FFCB38" stroke="#332105" stroke-linecap="round" stroke-linejoin="round"/>
<path d="M41.2167 21.7197L46 24.126V26.876L25.5 37.1885L5 26.876V24.126L9.78333 21.7197H41.2167Z" fill="#FFCB38" stroke="#332105" stroke-linecap="round" stroke-linejoin="round"/>
<path d="M5 19.3125L25.5 9L46 19.3125L25.5 29.625L5 19.3125Z" fill="#FFCB38" stroke="#332105" stroke-linecap="round" stroke-linejoin="round"/>
<path d="M5 24.124L25.5 34.4365V37.1865L5 26.874V24.124Z" fill="#FFCB38" stroke="#332105" stroke-linecap="round" stroke-linejoin="round"/>
<path d="M25.5 34.4375V37.1875L46 26.875V24.125L25.5 34.4375Z" fill="#FFCB38" stroke="#332105" stroke-linecap="round" stroke-linejoin="round"/>
<path d="M22 32.5V28" stroke="#332105" stroke-linecap="round" stroke-linejoin="round"/>
<path d="M16 29.5V25" stroke="#332105" stroke-linecap="round" stroke-linejoin="round"/>
<path d="M10 26.5V22" stroke="#332105" stroke-linecap="round" stroke-linejoin="round"/>
<path d="M29 32.5V28" stroke="#332105" stroke-linecap="round" stroke-linejoin="round"/>
<path d="M35 29.5V25" stroke="#332105" stroke-linecap="round" stroke-linejoin="round"/>
<path d="M41 26.5V22" stroke="#332105" stroke-linecap="round" stroke-linejoin="round"/>
</svg>
