<svg width="75" height="75" viewBox="0 0 75 75" fill="none" xmlns="http://www.w3.org/2000/svg">
<rect width="75" height="75" fill="#FFCB38"/>
<path d="M50.5854 42.1469C50.146 44.7623 49.1312 47.2371 47.6188 49.379L44.9538 52.334C44.3487 52.8606 43.7083 53.3426 43.0378 53.7765C41.5409 54.7583 41.1778 55.0728 38.1748 55.9045C35.1719 56.7362 33.3615 56.8481 30.3939 55.9045C22.9775 54.0335 17.7552 47.1474 17.75 39.2321V21.0775C17.7504 16.0641 21.6691 12.0004 26.5036 12H42.0655C46.8996 12.0004 50.8183 16.0641 50.8187 21.0775V30.5081L50.5854 42.1469Z" fill="#FFCB38" stroke="#332105" stroke-linecap="round" stroke-linejoin="round"/>
<path d="M23.1736 23.502H45.3935C46.0071 23.502 46.5046 24.1458 46.5046 24.9398V36.4418C46.5046 37.2358 46.0071 37.8797 45.3935 37.8797H23.1736C22.56 37.8797 22.0625 37.2358 22.0625 36.4418V24.9398C22.0625 24.1458 22.56 23.502 23.1736 23.502Z" fill="#FFCB38" stroke="#332105" stroke-linecap="round" stroke-linejoin="round"/>
<path d="M15.0057 23.502H17.6198C17.692 23.502 17.7505 23.8883 17.7505 24.3647V31.2659C17.7505 31.7423 17.692 32.1286 17.6198 32.1286H15.0057C14.9335 32.1286 14.875 31.7423 14.875 31.2659V24.3647C14.875 23.8883 14.9335 23.502 15.0057 23.502Z" fill="#FFCB38" stroke="#332105" stroke-linecap="round" stroke-linejoin="round"/>
<path d="M50.951 23.502H53.5651C53.6373 23.502 53.6959 23.8883 53.6959 24.3647V31.2659C53.6959 31.7423 53.6373 32.1286 53.5651 32.1286H50.951C50.8788 32.1286 50.8203 31.7423 50.8203 31.2659V24.3647C50.8203 23.8883 50.8788 23.502 50.951 23.502Z" fill="#FFCB38" stroke="#332105" stroke-linecap="round" stroke-linejoin="round"/>
<path d="M25.791 26.377H42.7828C43.252 26.377 43.6324 26.7633 43.6324 27.2397V34.1409C43.6324 34.6173 43.252 35.0036 42.7828 35.0036H25.791C25.3219 35.0036 24.9414 34.6173 24.9414 34.1409V27.2397C24.9414 26.7633 25.3219 26.377 25.791 26.377Z" fill="#FFCB38" stroke="#332105" stroke-linecap="round" stroke-linejoin="round"/>
<path d="M27.9471 19.1895H30.5612C30.6334 19.1895 30.6919 19.3826 30.6919 19.6208V23.0714C30.6919 23.3096 30.6334 23.5028 30.5612 23.5028H27.9471C27.8749 23.5028 27.8164 23.3096 27.8164 23.0714V19.6208C27.8164 19.3826 27.8749 19.1895 27.9471 19.1895Z" fill="#FFCB38" stroke="#332105" stroke-linecap="round" stroke-linejoin="round"/>
<path d="M38.0096 19.1895H40.6237C40.6959 19.1895 40.7544 19.3826 40.7544 19.6208V23.0714C40.7544 23.3096 40.6959 23.5028 40.6237 23.5028H38.0096C37.9374 23.5028 37.8789 23.3096 37.8789 23.0714V19.6208C37.8789 19.3826 37.9374 19.1895 38.0096 19.1895Z" fill="#FFCB38" stroke="#332105" stroke-linecap="round" stroke-linejoin="round"/>
<path d="M12 59.4456L55.1331 58.0078" stroke="#332105" stroke-linecap="round" stroke-linejoin="round"/>
<path d="M21.3438 65.1964L57.288 59.4453" stroke="#332105" stroke-linecap="round" stroke-linejoin="round"/>
<path d="M48.0696 46.0485L47.0005 47.615C46.4966 48.3535 46.3064 49.2619 46.4722 50.1407C46.638 51.0191 47.1464 51.7961 47.8847 52.2996L49.2701 53.245L48.6496 55.2116L47.3698 56.0297L45.9844 55.0843C42.9131 52.9823 42.1221 48.7917 44.2158 45.7147L46.4727 42.4081L48.0653 43.7577L48.0696 46.0485Z" fill="#FFCB38" stroke="#332105" stroke-linecap="round" stroke-linejoin="round"/>
<path d="M53.4448 50.9163L55.1605 52.0874C55.5451 52.3495 55.6441 52.874 55.3816 53.2586C55.1193 53.6429 55.2183 54.1673 55.6026 54.4299L59.7795 57.28C59.9642 57.406 60.0912 57.6003 60.1327 57.8198C60.1742 58.0397 60.1267 58.2669 60.0006 58.4512L59.5255 59.1474C59.2634 59.532 59.3624 60.0564 59.7466 60.3186L62.997 62.6031C63.7659 63.1279 63.9638 64.1763 63.4391 64.9453L61.5388 67.7299C61.014 68.4988 59.9652 68.6968 59.1963 68.1721L47.1847 59.9086C47 59.7826 46.873 59.5887 46.8315 59.3688L46.5189 57.7127C46.4774 57.4928 46.5249 57.2657 46.651 57.0813L50.1108 52.0109C50.2048 51.8736 50.3373 51.767 50.4914 51.7045L52.6541 50.831C52.9154 50.7255 53.2122 50.7575 53.4448 50.9163Z" fill="#FFCB38" stroke="#332105" stroke-linecap="round" stroke-linejoin="round"/>
<path d="M63.6205 18.2615C64.7119 17.487 65.818 18.2415 65.4946 19.5405C64.9483 21.6024 64.1575 23.5916 63.1385 25.4656C61.958 27.196 60.0658 27.9604 58.9119 27.1739C57.7584 26.3871 57.7807 24.3459 58.9613 22.616C60.3353 20.9839 61.8993 19.522 63.6205 18.2615Z" fill="#FFCB38" stroke="#332105" stroke-linecap="round" stroke-linejoin="round"/>
<path d="M59.3192 32.5524L54.1005 40.2099L50.5483 39.431L48.5382 36.4141L53.7568 28.7562C54.0076 28.3877 54.3946 28.134 54.8329 28.0513C55.2712 27.9686 55.7241 28.0637 56.0919 28.3154L58.8783 30.2169C59.2467 30.4677 59.5005 30.8551 59.5832 31.293C59.6659 31.7313 59.5707 32.1842 59.3192 32.5524Z" fill="#FFCB38" stroke="#332105" stroke-linecap="round" stroke-linejoin="round"/>
<path d="M54.1035 40.2084L49.7281 46.6091C49.5568 46.8635 49.2604 47.0045 48.9549 46.9764C48.6497 46.9482 48.3838 46.7559 48.2617 46.4746L45.8678 41.0168C45.7475 40.7514 45.7771 40.4418 45.9459 40.2043L48.5412 36.4125L54.1035 40.2084Z" fill="#FFCB38" stroke="#332105" stroke-linecap="round" stroke-linejoin="round"/>
</svg>
