<svg width="64" height="61" viewBox="0 0 64 61" fill="none" xmlns="http://www.w3.org/2000/svg">
<path d="M39.5854 31.1469C39.146 33.7623 38.1312 36.2371 36.6188 38.379L33.9538 41.334C33.3487 41.8606 32.7083 42.3426 32.0378 42.7765C30.5409 43.7583 30.1778 44.0728 27.1748 44.9045C24.1719 45.7362 22.3615 45.8481 19.3939 44.9045C11.9775 43.0335 6.75516 36.1474 6.75 28.2321V10.0775C6.75043 5.0641 10.6691 1.00045 15.5036 1H31.0655C35.8996 1.00045 39.8183 5.0641 39.8187 10.0775V19.5081L39.5854 31.1469Z" fill="#FFCB38" stroke="#332105" stroke-linecap="round" stroke-linejoin="round"/>
<path d="M12.1736 12.502H34.3935C35.0071 12.502 35.5046 13.1458 35.5046 13.9398V25.4418C35.5046 26.2358 35.0071 26.8797 34.3935 26.8797H12.1736C11.56 26.8797 11.0625 26.2358 11.0625 25.4418V13.9398C11.0625 13.1458 11.56 12.502 12.1736 12.502Z" fill="#FFCB38" stroke="#332105" stroke-linecap="round" stroke-linejoin="round"/>
<path d="M4.00571 12.502H6.61983C6.69201 12.502 6.75054 12.8883 6.75054 13.3647V20.2659C6.75054 20.7423 6.69201 21.1286 6.61983 21.1286H4.00571C3.93353 21.1286 3.875 20.7423 3.875 20.2659V13.3647C3.875 12.8883 3.93353 12.502 4.00571 12.502Z" fill="#FFCB38" stroke="#332105" stroke-linecap="round" stroke-linejoin="round"/>
<path d="M39.951 12.502H42.5651C42.6373 12.502 42.6959 12.8883 42.6959 13.3647V20.2659C42.6959 20.7423 42.6373 21.1286 42.5651 21.1286H39.951C39.8788 21.1286 39.8203 20.7423 39.8203 20.2659V13.3647C39.8203 12.8883 39.8788 12.502 39.951 12.502Z" fill="#FFCB38" stroke="#332105" stroke-linecap="round" stroke-linejoin="round"/>
<path d="M14.791 15.377H31.7828C32.252 15.377 32.6324 15.7633 32.6324 16.2397V23.1409C32.6324 23.6173 32.252 24.0036 31.7828 24.0036H14.791C14.3219 24.0036 13.9414 23.6173 13.9414 23.1409V16.2397C13.9414 15.7633 14.3219 15.377 14.791 15.377Z" fill="#FFCB38" stroke="#332105" stroke-linecap="round" stroke-linejoin="round"/>
<path d="M16.9471 8.18945H19.5612C19.6334 8.18945 19.6919 8.38261 19.6919 8.6208V12.0714C19.6919 12.3096 19.6334 12.5028 19.5612 12.5028H16.9471C16.8749 12.5028 16.8164 12.3096 16.8164 12.0714V8.6208C16.8164 8.38261 16.8749 8.18945 16.9471 8.18945Z" fill="#FFCB38" stroke="#332105" stroke-linecap="round" stroke-linejoin="round"/>
<path d="M27.0096 8.18945H29.6237C29.6959 8.18945 29.7544 8.38261 29.7544 8.6208V12.0714C29.7544 12.3096 29.6959 12.5028 29.6237 12.5028H27.0096C26.9374 12.5028 26.8789 12.3096 26.8789 12.0714V8.6208C26.8789 8.38261 26.9374 8.18945 27.0096 8.18945Z" fill="#FFCB38" stroke="#332105" stroke-linecap="round" stroke-linejoin="round"/>
<path d="M1 48.4456L44.1331 47.0078" stroke="#332105" stroke-linecap="round" stroke-linejoin="round"/>
<path d="M10.3438 54.1964L46.288 48.4453" stroke="#332105" stroke-linecap="round" stroke-linejoin="round"/>
<path d="M37.0696 35.0485L36.0005 36.615C35.4966 37.3535 35.3064 38.2619 35.4722 39.1407C35.638 40.0191 36.1464 40.7961 36.8847 41.2996L38.2701 42.245L37.6496 44.2116L36.3698 45.0297L34.9844 44.0843C31.9131 41.9823 31.1221 37.7917 33.2158 34.7147L35.4727 31.4081L37.0653 32.7577L37.0696 35.0485Z" fill="#FFCB38" stroke="#332105" stroke-linecap="round" stroke-linejoin="round"/>
<path d="M42.4448 39.9163L44.1605 41.0874C44.5451 41.3495 44.6441 41.874 44.3816 42.2586C44.1193 42.6429 44.2183 43.1673 44.6026 43.4299L48.7795 46.28C48.9642 46.406 49.0912 46.6003 49.1327 46.8198C49.1742 47.0397 49.1267 47.2669 49.0006 47.4512L48.5255 48.1474C48.2634 48.532 48.3624 49.0564 48.7466 49.3186L51.997 51.6031C52.7659 52.1279 52.9638 53.1763 52.4391 53.9453L50.5388 56.7299C50.014 57.4988 48.9652 57.6968 48.1963 57.1721L36.1847 48.9086C36 48.7826 35.873 48.5887 35.8315 48.3688L35.5189 46.7127C35.4774 46.4928 35.5249 46.2657 35.651 46.0813L39.1108 41.0109C39.2048 40.8736 39.3373 40.767 39.4914 40.7045L41.6541 39.831C41.9154 39.7255 42.2122 39.7575 42.4448 39.9163Z" fill="#FFCB38" stroke="#332105" stroke-linecap="round" stroke-linejoin="round"/>
<path d="M52.6205 7.26155C53.7119 6.48699 54.818 7.24146 54.4946 8.54051C53.9483 10.6024 53.1575 12.5916 52.1385 14.4656C50.958 16.196 49.0658 16.9604 47.9119 16.1739C46.7584 15.3871 46.7807 13.3459 47.9613 11.616C49.3353 9.98387 50.8993 8.52198 52.6205 7.26155Z" fill="#FFCB38" stroke="#332105" stroke-linecap="round" stroke-linejoin="round"/>
<path d="M48.3192 21.5524L43.1005 29.2099L39.5483 28.431L37.5382 25.4141L42.7568 17.7562C43.0076 17.3877 43.3946 17.134 43.8329 17.0513C44.2712 16.9686 44.7241 17.0637 45.0919 17.3154L47.8783 19.2169C48.2467 19.4677 48.5005 19.8551 48.5832 20.293C48.6659 20.7313 48.5707 21.1842 48.3192 21.5524Z" fill="#FFCB38" stroke="#332105" stroke-linecap="round" stroke-linejoin="round"/>
<path d="M43.1035 29.2084L38.7281 35.6091C38.5568 35.8635 38.2604 36.0045 37.9549 35.9764C37.6497 35.9482 37.3838 35.7559 37.2617 35.4746L34.8678 30.0168C34.7475 29.7514 34.7771 29.4418 34.9459 29.2043L37.5412 25.4125L43.1035 29.2084Z" fill="#FFCB38" stroke="#332105" stroke-linecap="round" stroke-linejoin="round"/>
</svg>
