<svg width="75" height="75" viewBox="0 0 75 75" fill="none" xmlns="http://www.w3.org/2000/svg">
<rect width="75" height="75" fill="#FFCB38"/>
<path d="M58.2899 43.043L64.6678 46.2514L37.3339 60.0016L10 46.2514L16.3779 43.043H58.2899Z" fill="#FFCB38" stroke="#332105" stroke-linecap="round" stroke-linejoin="round"/>
<path d="M58.2899 32.959L64.6678 36.1674V39.8341L37.3339 53.5844L10 39.8341V36.1674L16.3779 32.959H58.2899Z" fill="#FFCB38" stroke="#332105" stroke-linecap="round" stroke-linejoin="round"/>
<path d="M10 29.7503L37.3339 16L64.6678 29.7503L37.3339 43.5006L10 29.7503Z" fill="#FFCB38" stroke="#332105" stroke-linecap="round" stroke-linejoin="round"/>
<path d="M10 36.168L37.3339 49.9182V53.585L10 39.8347V36.168Z" fill="#FFCB38" stroke="#332105" stroke-linecap="round" stroke-linejoin="round"/>
<path d="M37.332 49.9182V53.585L64.6659 39.8347V36.168L37.332 49.9182Z" fill="#FFCB38" stroke="#332105" stroke-linecap="round" stroke-linejoin="round"/>
<path d="M32.668 47.3341V41.334" stroke="#332105" stroke-linecap="round" stroke-linejoin="round"/>
<path d="M24.668 43.3341V37.334" stroke="#332105" stroke-linecap="round" stroke-linejoin="round"/>
<path d="M16.668 39.3341V33.334" stroke="#332105" stroke-linecap="round" stroke-linejoin="round"/>
<path d="M42 47.3341V41.334" stroke="#332105" stroke-linecap="round" stroke-linejoin="round"/>
<path d="M50 43.3341V37.334" stroke="#332105" stroke-linecap="round" stroke-linejoin="round"/>
<path d="M58 39.3341V33.334" stroke="#332105" stroke-linecap="round" stroke-linejoin="round"/>
<path d="M50.0156 54.3255V52.6074" stroke="#332105" stroke-linecap="round" stroke-linejoin="round"/>
<rect x="45.4375" y="36" width="21.7626" height="5.727" rx="2" fill="#FFCB38" stroke="#332105" stroke-linecap="round" stroke-linejoin="round"/>
<rect x="45.4375" y="41.7266" width="21.7626" height="5.727" rx="2" fill="#FFCB38" stroke="#332105" stroke-linecap="round" stroke-linejoin="round"/>
<rect x="45.4375" y="47.4551" width="21.7626" height="5.727" rx="2" fill="#FFCB38" stroke="#332105" stroke-linecap="round" stroke-linejoin="round"/>
<rect x="45.4375" y="53.1816" width="21.7626" height="5.727" rx="2" fill="#FFCB38" stroke="#332105" stroke-linecap="round" stroke-linejoin="round"/>
<rect x="45.4375" y="58.9082" width="21.7626" height="5.727" rx="2" fill="#FFCB38" stroke="#332105" stroke-linecap="round" stroke-linejoin="round"/>
<circle cx="50.0178" cy="57.7619" r="8.01779" fill="#FFCB38" stroke="#332105" stroke-linecap="round" stroke-linejoin="round"/>
<path d="M49.9171 58.3292C50.6312 58.6939 52.0735 59.0894 52.0282 60.0906C51.9829 61.0918 51.4635 62.4068 50.1116 62.3498C48.7598 62.2927 48.3052 61.9388 47.9664 61.2559" stroke="#332105" stroke-linecap="round" stroke-linejoin="round"/>
<path d="M49.911 58.3309C49.1969 57.9663 47.7546 57.5708 47.7999 56.5696C47.8452 55.5684 48.3646 54.2533 49.7165 54.3104C51.0684 54.3675 51.5229 54.7213 51.8617 55.4043" stroke="#332105" stroke-linecap="round" stroke-linejoin="round"/>
<path d="M50.0273 53.1777V54.3231" stroke="#332105" stroke-linecap="round" stroke-linejoin="round"/>
<path d="M50.0273 62.3418V63.4872" stroke="#332105" stroke-linecap="round" stroke-linejoin="round"/>
</svg>
