<svg width="75" height="75" viewBox="0 0 75 75" fill="none" xmlns="http://www.w3.org/2000/svg">
<rect width="75" height="75" fill="#FFCB38"/>
<path d="M21 16C21 14.8954 21.8954 14 23 14H47.9883C48.4727 14 48.9407 14.1758 49.3053 14.4948L52.4384 17.2363L54.6266 19.4245C55.0016 19.7996 55.2123 20.3083 55.2123 20.8387V59.1575C55.2123 60.2621 54.3169 61.1576 53.2123 61.1576H23C21.8954 61.1576 21 60.2621 21 59.1576V16Z" fill="#FFCB38" stroke="#332105" stroke-linecap="round" stroke-linejoin="round"/>
<path d="M48.7344 14V20.4726H55.207" stroke="#332105" stroke-linecap="round" stroke-linejoin="round"/>
<path d="M25.625 23.2461H43.1935" stroke="#332105" stroke-linecap="round" stroke-linejoin="round"/>
<path d="M32.0938 28.793H38.5664" stroke="#332105" stroke-linecap="round" stroke-linejoin="round"/>
<path d="M26.2383 54.0703H29.3206" stroke="#332105" stroke-linecap="round" stroke-linejoin="round"/>
<path d="M25.625 28.793H29.3236" stroke="#332105" stroke-linecap="round" stroke-linejoin="round"/>
<path d="M45.9648 23.2461H49.6635" stroke="#332105" stroke-linecap="round" stroke-linejoin="round"/>
<path d="M26 37H50" stroke="#332105" stroke-linecap="round" stroke-linejoin="round"/>
<path d="M26 40H50" stroke="#332105" stroke-linecap="round" stroke-linejoin="round"/>
<path d="M26 43H50" stroke="#332105" stroke-linecap="round" stroke-linejoin="round"/>
<path d="M26 46L36 46" stroke="#332105" stroke-linecap="round" stroke-linejoin="round"/>
<path d="M25.625 26.0195H49.6661" stroke="#332105" stroke-linecap="round" stroke-linejoin="round"/>
<path d="M48.1867 52.1515C48.9008 52.5162 50.343 52.9117 50.2978 53.9128C50.2525 54.914 49.7331 56.2291 48.3812 56.172C47.0293 56.115 46.5748 55.7611 46.2359 55.0781" stroke="#332105" stroke-linecap="round" stroke-linejoin="round"/>
<path d="M48.1805 52.1532C47.4664 51.7885 46.0241 51.393 46.0694 50.3918C46.1147 49.3907 46.6341 48.0756 47.986 48.1327C49.3379 48.1897 49.7924 48.5436 50.1312 49.2266" stroke="#332105" stroke-linecap="round" stroke-linejoin="round"/>
<path d="M48.2969 47V48.1454" stroke="#332105" stroke-linecap="round" stroke-linejoin="round"/>
<path d="M48.2969 56.1641V57.3095" stroke="#332105" stroke-linecap="round" stroke-linejoin="round"/>
<path d="M41.0032 67.3922C41.0031 67.5539 40.9412 67.7156 40.8177 67.8388C40.5708 68.0854 40.1706 68.0851 39.924 67.8381L38.1828 66.0939C37.9362 65.847 37.9367 65.4468 38.1835 65.2002C38.4305 64.9537 38.8306 64.954 39.0772 65.201L40.8184 66.9451C40.9418 67.0687 41.0034 67.2305 41.0032 67.3922Z" fill="#FFCB38" stroke="#332105" stroke-linecap="round" stroke-linejoin="round"/>
<path d="M17.016 40.6869L18.83 42.504L20.2633 43.9136L21.4186 45.0971L37.8132 61.52C38.0691 61.7764 38.2778 62.0759 38.4294 62.4049L39.4606 64.6412C40.0002 65.8115 38.7896 67.0199 37.6203 66.4784L35.3858 65.4433C35.057 65.2911 34.7579 65.0819 34.5019 64.8256L18.1073 48.4026L16.8819 47.1424L15.5187 45.8096L13.7047 43.9924C12.7919 43.078 12.7932 41.5968 13.7076 40.6841C14.622 39.7713 16.1032 39.7726 17.016 40.6869Z" fill="#FFCB38" stroke="#332105" stroke-linecap="round" stroke-linejoin="round"/>
<path d="M18.1094 48.4062L15.5212 45.8136L18.8319 42.5086L21.4201 45.1013L18.1094 48.4062Z" fill="#FFCB38" stroke="#332105" stroke-linecap="round" stroke-linejoin="round"/>
</svg>
