<svg width="36" height="49" viewBox="0 0 36 49" fill="none" xmlns="http://www.w3.org/2000/svg">
<g id="Group 446">
<path id="Rectangle 836" d="M1 3C1 1.89543 1.89543 1 3 1H27.9883C28.4727 1 28.9407 1.17584 29.3053 1.49485L32.4384 4.2363L34.6266 6.42449C35.0016 6.79956 35.2123 7.30827 35.2123 7.8387V46.1575C35.2123 47.2621 34.3169 48.1576 33.2123 48.1576H3C1.89543 48.1576 1 47.2621 1 46.1576V3Z" fill="#FFCB38" stroke="#332105" stroke-linecap="round" stroke-linejoin="round"/>
<path id="Vector 242" d="M28.7344 1V7.4726H35.207" stroke="#332105" stroke-linecap="round" stroke-linejoin="round"/>
<path id="Vector 243" d="M5.625 10.2461H23.1935" stroke="#332105" stroke-linecap="round" stroke-linejoin="round"/>
<path id="Vector 247" d="M12.0938 15.793H18.5664" stroke="#332105" stroke-linecap="round" stroke-linejoin="round"/>
<path id="Vector 253" d="M6.23828 41.0703H9.32058" stroke="#332105" stroke-linecap="round" stroke-linejoin="round"/>
<path id="Vector 246" d="M5.625 15.793H9.32363" stroke="#332105" stroke-linecap="round" stroke-linejoin="round"/>
<path id="Vector 245" d="M25.9648 10.2461H29.6635" stroke="#332105" stroke-linecap="round" stroke-linejoin="round"/>
<path id="Vector 249" d="M6 24H30" stroke="#332105" stroke-linecap="round" stroke-linejoin="round"/>
<path id="Vector 250" d="M6 27H30" stroke="#332105" stroke-linecap="round" stroke-linejoin="round"/>
<path id="Vector 251" d="M6 30H30" stroke="#332105" stroke-linecap="round" stroke-linejoin="round"/>
<path id="Vector 252" d="M6 33L16 33" stroke="#332105" stroke-linecap="round" stroke-linejoin="round"/>
<path id="Vector 244" d="M5.625 13.0195H29.6661" stroke="#332105" stroke-linecap="round" stroke-linejoin="round"/>
<g id="Group 445">
<path id="Vector 248" d="M28.1867 39.1515C28.9008 39.5162 30.343 39.9117 30.2978 40.9128C30.2525 41.914 29.7331 43.2291 28.3812 43.172C27.0293 43.115 26.5748 42.7611 26.2359 42.0781" stroke="#332105" stroke-linecap="round" stroke-linejoin="round"/>
<path id="Vector 249_2" d="M28.1805 39.1532C27.4664 38.7885 26.0241 38.393 26.0694 37.3918C26.1147 36.3907 26.6341 35.0756 27.986 35.1327C29.3379 35.1897 29.7924 35.5436 30.1312 36.2266" stroke="#332105" stroke-linecap="round" stroke-linejoin="round"/>
<path id="Vector 251_2" d="M28.2969 34V35.1454" stroke="#332105" stroke-linecap="round" stroke-linejoin="round"/>
<path id="Vector 252_2" d="M28.2969 43.1641V44.3095" stroke="#332105" stroke-linecap="round" stroke-linejoin="round"/>
</g>
</g>
</svg>
