<svg width="75" height="75" viewBox="0 0 75 75" fill="none" xmlns="http://www.w3.org/2000/svg">
<rect width="75" height="75" fill="#FFCB38"/>
<path d="M37.5135 56.4598L8 52.8032L21.6918 22.0273L37.5135 56.4598Z" stroke="#332105" stroke-linecap="round" stroke-linejoin="round"/>
<path d="M21.7031 21.6757L45.2437 15" stroke="#332105" stroke-linecap="round" stroke-linejoin="round"/>
<path d="M37.5117 56.4595L59.9982 46.632L44.9045 15" stroke="#332105" stroke-linecap="round" stroke-linejoin="round"/>
<path d="M21.7031 22.3789V54.3519" stroke="#332105" stroke-linecap="round" stroke-linejoin="round"/>
<path d="M13.6211 39.5938L21.7022 54.3505L30.8373 42.4046" stroke="#332105" stroke-linecap="round" stroke-linejoin="round"/>
<path d="M34.3516 49.7834L56.838 40.2969" stroke="#332105" stroke-linecap="round" stroke-linejoin="round"/>
<path d="M34.3516 49.7834L49.4597 51.1888L56.838 40.2969" stroke="#332105" stroke-linecap="round" stroke-linejoin="round"/>
<path d="M25.5664 20.6211L38.2151 48.0265" stroke="#332105" stroke-linecap="round" stroke-linejoin="round"/>
<path d="M29.7852 19.5684L42.0825 46.6224" stroke="#332105" stroke-linecap="round" stroke-linejoin="round"/>
<path d="M33.2969 18.5137L45.5942 45.2164" stroke="#332105" stroke-linecap="round" stroke-linejoin="round"/>
<path d="M36.8125 17.1074L49.1098 43.4588" stroke="#332105" stroke-linecap="round" stroke-linejoin="round"/>
<path d="M41.0273 16.0547L53.3246 42.0547" stroke="#332105" stroke-linecap="round" stroke-linejoin="round"/>
<path d="M66.6036 36.8784L69 40L66.5405 43.0901L67.0766 46.9685L63.4189 48.4504L61.9685 52.1081L58.0901 51.5721L54.9685 53.9685L51.8468 51.5721L47.9685 52.1081L46.518 48.4504L42.8604 47L43.3964 43.1216L41 40L43.4279 36.8468L42.8919 32.9685L46.5496 31.518L48 27.8604L51.8784 28.3964L55 26L58.1532 28.4279L62.0315 27.8919L63.482 31.5495L67.1396 33L66.6036 36.8784Z" fill="#FFCB38" stroke="#332105" stroke-linecap="round" stroke-linejoin="round"/>
<path d="M48.5703 52.4707V63.8221" stroke="#332105" stroke-linecap="round" stroke-linejoin="round"/>
<path d="M61.4336 52.4707V63.8221" stroke="#332105" stroke-linecap="round" stroke-linejoin="round"/>
<path d="M48.5703 63.82L55.0027 60.793L61.4352 63.82" stroke="#332105" stroke-linecap="round" stroke-linejoin="round"/>
<path d="M60.6797 33.5669L55.004 47.9453L49.3283 33.5669" stroke="#332105" stroke-linecap="round" stroke-linejoin="round"/>
</svg>
