<svg width="47" height="55" viewBox="0 0 47 55" fill="none" xmlns="http://www.w3.org/2000/svg">
<path d="M1 3C1 1.89543 1.89543 1 3 1H27.9883C28.4727 1 28.9407 1.17584 29.3053 1.49485L32.4384 4.2363L34.6266 6.42449C35.0016 6.79956 35.2123 7.30827 35.2123 7.8387V46.1575C35.2123 47.2621 34.3169 48.1576 33.2123 48.1576H3C1.89543 48.1576 1 47.2621 1 46.1576V3Z" fill="#FFCB38" stroke="#332105" stroke-linecap="round" stroke-linejoin="round"/>
<rect width="25.8296" height="33.2463" rx="2" transform="matrix(0.999999 -0.00155842 0.00188152 0.999998 20.1055 21.0742)" fill="#FFCB38" stroke="#332105" stroke-linecap="round" stroke-linejoin="round"/>
<rect width="19.3722" height="6.04479" rx="2" transform="matrix(0.999999 -0.00149015 0.0019536 0.999998 23.3398 24.8457)" fill="#FFCB38" stroke="#332105" stroke-linecap="round" stroke-linejoin="round"/>
<path d="M35.4766 38.4297L41.934 38.4193" stroke="#332105" stroke-linecap="round" stroke-linejoin="round"/>
<path d="M35.4883 46.7402L41.9457 46.7299" stroke="#332105" stroke-linecap="round" stroke-linejoin="round"/>
<path d="M35.5 49.0039L41.9574 48.9936" stroke="#332105" stroke-linecap="round" stroke-linejoin="round"/>
<path d="M24.1719 38.4453L30.6293 38.435" stroke="#332105" stroke-linecap="round" stroke-linejoin="round"/>
<path d="M27.3867 35.4141L27.3978 41.4588" stroke="#332105" stroke-linecap="round" stroke-linejoin="round"/>
<path d="M25.1367 45.375L29.7112 49.6425" stroke="#332105" stroke-linecap="round" stroke-linejoin="round"/>
<path d="M29.707 45.3691L25.1493 49.6503" stroke="#332105" stroke-linecap="round" stroke-linejoin="round"/>
<path d="M28.7344 1V7.4726H35.207" stroke="#332105" stroke-linecap="round" stroke-linejoin="round"/>
<path d="M5.625 10.2461H23.1935" stroke="#332105" stroke-linecap="round" stroke-linejoin="round"/>
<path d="M12.0938 15.7949H18.5664" stroke="#332105" stroke-linecap="round" stroke-linejoin="round"/>
<path d="M6.23828 41.0703H9.32058" stroke="#332105" stroke-linecap="round" stroke-linejoin="round"/>
<path d="M5.625 15.7949H9.32363" stroke="#332105" stroke-linecap="round" stroke-linejoin="round"/>
<path d="M25.9648 10.2461H29.6635" stroke="#332105" stroke-linecap="round" stroke-linejoin="round"/>
<path d="M6.23828 24.1172H17.0263" stroke="#332105" stroke-linecap="round" stroke-linejoin="round"/>
<path d="M6.23828 27.1992H17.0263" stroke="#332105" stroke-linecap="round" stroke-linejoin="round"/>
<path d="M6.23828 30.2812H17.0263" stroke="#332105" stroke-linecap="round" stroke-linejoin="round"/>
<path d="M6.23828 33.3633H10.8617" stroke="#332105" stroke-linecap="round" stroke-linejoin="round"/>
<path d="M5.625 13.0195H29.6661" stroke="#332105" stroke-linecap="round" stroke-linejoin="round"/>
</svg>
