<svg width="75" height="75" viewBox="0 0 75 75" fill="none" xmlns="http://www.w3.org/2000/svg">
<rect width="75" height="75" fill="#FFCB38"/>
<path d="M15 53.5328V18.9457C15 18.4234 15.4234 18 15.9457 18H61.0543C61.5766 18 62 18.4234 62 18.9457V53.5327C62 54.055 61.5766 54.4783 61.0543 54.4783H15.9457C15.4234 54.4784 15 54.055 15 53.5328Z" fill="#FFCB38" stroke="#332105" stroke-linecap="round" stroke-linejoin="round"/>
<path d="M17.9023 51.5823H59.0999V20.8926H17.9023V51.5823Z" fill="#FFCB38" stroke="#332105" stroke-linecap="round" stroke-linejoin="round"/>
<path d="M51.2578 58.3984L49.2246 57.4527L47.1914 58.3984V46.1992H51.2578V58.3984Z" fill="#FFCB38" stroke="#332105" stroke-linecap="round" stroke-linejoin="round"/>
<path d="M49.222 48.559C48.5045 48.559 48.0347 47.3377 47.4108 47.0785C46.7641 46.8099 45.5721 47.3304 45.0847 46.8421C44.5973 46.3539 45.117 45.1597 44.8488 44.5119C44.5901 43.8869 43.3711 43.4162 43.3711 42.6974C43.3711 41.9787 44.5901 41.508 44.8488 40.8829C45.117 40.2351 44.5973 39.041 45.0847 38.5527C45.5721 38.0645 46.7641 38.5851 47.4107 38.3164C48.0346 38.0572 48.5044 36.8359 49.2219 36.8359C49.9394 36.8359 50.4092 38.0572 51.033 38.3164C51.6798 38.5851 52.8717 38.0645 53.3591 38.5528C53.8465 39.0411 53.3269 40.2352 53.595 40.883C53.8538 41.508 55.0728 41.9787 55.0728 42.6975C55.0728 43.4162 53.8538 43.8869 53.595 44.512C53.3269 45.1598 53.8465 46.3539 53.3591 46.8422C52.8717 47.3304 51.6798 46.8099 51.0331 47.0785C50.4093 47.3377 49.9395 48.559 49.222 48.559Z" fill="#FFCB38" stroke="#332105" stroke-linecap="round" stroke-linejoin="round"/>
<path d="M49.2212 44.7587C50.3594 44.7587 51.2822 43.836 51.2822 42.6977C51.2822 41.5595 50.3594 40.6367 49.2212 40.6367C48.0829 40.6367 47.1602 41.5595 47.1602 42.6977C47.1602 43.836 48.0829 44.7587 49.2212 44.7587Z" fill="#FFCB38" stroke="#332105" stroke-linecap="round" stroke-linejoin="round"/>
<path d="M30 28H47.5685" stroke="#332105" stroke-linecap="round" stroke-linejoin="round"/>
<path d="M38.4688 33.5469H44.9414" stroke="#332105" stroke-linecap="round" stroke-linejoin="round"/>
<path d="M32 33.5469H35.6986" stroke="#332105" stroke-linecap="round" stroke-linejoin="round"/>
<path d="M27 30.7734H51.0411" stroke="#332105" stroke-linecap="round" stroke-linejoin="round"/>
<path d="M26 45.5269C30 42.7963 28.5 40.6119 30 43.0694C31.5 45.5269 30 45.7993 31.5 44.161C33 42.5226 34 41.9765 35 43.8879C36 45.7993 36.5 46.3454 37.5 45.7993C38.5 45.2532 35.5 43.6149 39 43.8879" stroke="#332105" stroke-linecap="round" stroke-linejoin="round"/>
<path d="M21.6519 17.6719L11.1211 18.0652L12.7346 36.8438L12.1232 55.7083C12.1547 56.8818 14.5373 57.7455 17.4452 57.6369C20.3533 57.5281 22.6853 56.4887 22.654 55.315L21.0405 36.5333L21.6519 17.6719Z" fill="#FFCB38" stroke="#332105" stroke-linecap="round" stroke-linejoin="round"/>
<path d="M16.4245 15.6877C13.4924 15.7829 11.1455 16.8196 11.1823 18.0025C11.2192 19.1855 13.6262 20.0673 16.5583 19.9716C19.4903 19.8762 21.8371 18.8399 21.8002 17.6569C21.7632 16.4738 19.3565 15.5923 16.4245 15.6877Z" fill="#FFCB38" stroke="#332105" stroke-linecap="round" stroke-linejoin="round"/>
<path d="M11.0185 45.2871L13.9647 39.2602L18.2163 41.3386L15.277 47.3509C15.2012 47.5063 14.9824 47.5142 14.8955 47.3646L13.7931 45.4675C13.7504 45.3941 13.6687 45.3523 13.5843 45.3608L11.2346 45.5976C11.0658 45.6143 10.944 45.4395 11.0185 45.2871Z" fill="#FFCB38" stroke="#332105" stroke-linecap="round" stroke-linejoin="round"/>
<path d="M24.2195 44.8642L20.8949 39.0372L16.7844 41.3823L20.1007 47.1951C20.1865 47.3455 20.4052 47.3393 20.4824 47.1845L21.462 45.221C21.4998 45.1449 21.5787 45.0982 21.6636 45.1012L24.0234 45.1877C24.1929 45.194 24.3034 45.0114 24.2195 44.8642Z" fill="#FFCB38" stroke="#332105" stroke-linecap="round" stroke-linejoin="round"/>
<path d="M18.266 30.7747C18.6212 31.0732 19.0858 31.208 19.5454 31.1457C20.3774 31.0332 21.1609 31.5652 21.3635 32.3799C21.4754 32.8302 21.772 33.2125 22.1806 33.4324C22.9196 33.8304 23.2409 34.7214 22.9258 35.4993C22.7514 35.9294 22.767 36.413 22.9683 36.8309C23.3322 37.5876 23.0686 38.497 22.356 38.9413C21.9623 39.1868 21.6906 39.5872 21.6076 40.0437C21.4576 40.8698 20.7098 41.4505 19.8723 41.3911C19.4094 41.3585 18.9542 41.5225 18.6189 41.8432C18.0117 42.423 17.0655 42.4534 16.4226 41.913C16.0675 41.6147 15.6028 41.4797 15.1432 41.5419C14.3111 41.6545 13.5276 41.1225 13.3251 40.3078C13.2132 39.8575 12.9167 39.4754 12.5082 39.2555C11.769 38.8572 11.4477 37.9667 11.7628 37.1884C11.9371 36.7583 11.9215 36.2747 11.7203 35.8568C11.3563 35.1001 11.62 34.1907 12.3326 33.7464C12.7262 33.5009 12.9979 33.1005 13.0809 32.644C13.231 31.8179 13.9788 31.2372 14.8163 31.2965C15.2791 31.3292 15.7343 31.1652 16.0698 30.8447C16.6768 30.2646 17.6233 30.2345 18.266 30.7747Z" fill="#FFCB38" stroke="#332105" stroke-linecap="round" stroke-linejoin="round"/>
<path d="M20.8454 36.2284C20.7839 34.2932 19.1651 32.7744 17.2297 32.8362C15.2947 32.8979 13.776 34.5166 13.8377 36.4516C13.8994 38.387 15.5182 39.9058 17.4533 39.8439C19.3885 39.7823 20.9073 38.1636 20.8454 36.2284Z" fill="#FFCB38" stroke="#332105" stroke-linecap="round" stroke-linejoin="round"/>
</svg>
