<svg width="19" height="47" viewBox="0 0 19 47" fill="none" xmlns="http://www.w3.org/2000/svg">
<path d="M13.6519 5.67188L3.12109 6.06523L4.7346 24.8438L4.12323 43.7083C4.15466 44.8818 6.53731 45.7455 9.44522 45.6369C12.3533 45.5281 14.6853 44.4887 14.654 43.315L13.0405 24.5333L13.6519 5.67188Z" fill="#FFCB38" stroke="#332105" stroke-linecap="round" stroke-linejoin="round"/>
<path d="M8.42451 3.68769C5.49236 3.78295 3.14552 4.81962 3.18227 6.00249C3.21922 7.18555 5.62616 8.06728 8.5583 7.97164C11.4903 7.8762 13.8371 6.83991 13.8002 5.65685C13.7632 4.4738 11.3565 3.59225 8.42451 3.68769Z" fill="#FFCB38" stroke="#332105" stroke-linecap="round" stroke-linejoin="round"/>
<path d="M3.01851 33.2871L5.96472 27.2602L10.2163 29.3386L7.27702 35.3509C7.2012 35.5063 6.98236 35.5142 6.89545 35.3646L5.79313 33.4675C5.7504 33.3941 5.66868 33.3523 5.58428 33.3608L3.23463 33.5976C3.06582 33.6143 2.94397 33.4395 3.01851 33.2871Z" fill="#FFCB38" stroke="#332105" stroke-linecap="round" stroke-linejoin="round"/>
<path d="M16.2195 32.8642L12.8949 27.0372L8.78444 29.3823L12.1007 35.1951C12.1865 35.3455 12.4052 35.3393 12.4824 35.1845L13.462 33.221C13.4998 33.1449 13.5787 33.0982 13.6636 33.1012L16.0234 33.1877C16.1929 33.194 16.3034 33.0114 16.2195 32.8642Z" fill="#FFCB38" stroke="#332105" stroke-linecap="round" stroke-linejoin="round"/>
<path d="M10.266 18.7747C10.6212 19.0732 11.0858 19.208 11.5454 19.1457C12.3774 19.0332 13.1609 19.5652 13.3635 20.3799C13.4754 20.8302 13.772 21.2125 14.1806 21.4324C14.9196 21.8304 15.2409 22.7214 14.9258 23.4993C14.7514 23.9294 14.767 24.413 14.9683 24.8309C15.3322 25.5876 15.0686 26.497 14.356 26.9413C13.9623 27.1868 13.6906 27.5872 13.6076 28.0437C13.4576 28.8698 12.7098 29.4505 11.8723 29.3911C11.4094 29.3585 10.9542 29.5225 10.6189 29.8432C10.0117 30.423 9.06548 30.4534 8.42256 29.913C8.06753 29.6147 7.60279 29.4797 7.14317 29.5419C6.31114 29.6545 5.52763 29.1225 5.32509 28.3078C5.21318 27.8575 4.91674 27.4754 4.50821 27.2555C3.76896 26.8572 3.44772 25.9667 3.76277 25.1884C3.93713 24.7583 3.92152 24.2747 3.72031 23.8568C3.35632 23.1001 3.61997 22.1907 4.33255 21.7464C4.72624 21.5009 4.99793 21.1005 5.08092 20.644C5.23095 19.8179 5.97879 19.2372 6.8163 19.2965C7.27914 19.3292 7.73435 19.1652 8.06985 18.8447C8.67684 18.2646 9.62329 18.2345 10.266 18.7747Z" fill="#FFCB38" stroke="#332105" stroke-linecap="round" stroke-linejoin="round"/>
<path d="M12.8454 24.2284C12.7839 22.2932 11.1651 20.7744 9.22972 20.8362C7.29474 20.8979 5.77599 22.5166 5.83768 24.4516C5.89939 26.387 7.51817 27.9058 9.45334 27.8439C11.3885 27.7823 12.9073 26.1636 12.8454 24.2284Z" fill="#FFCB38" stroke="#332105" stroke-linecap="round" stroke-linejoin="round"/>
</svg>
