<svg width="53" height="50" viewBox="0 0 53 50" fill="none" xmlns="http://www.w3.org/2000/svg">
<path fill-rule="evenodd" clip-rule="evenodd" d="M24.3585 10.8555C24.3583 10.8557 24.3581 10.8559 24.3579 10.8561L18.1358 18.1315C17.7625 18.5674 17.5779 19.1048 17.5779 19.6412C17.5779 20.237 17.8066 20.8319 18.2578 21.2831C19.0957 22.121 20.43 22.1938 21.354 21.4513L25.7917 17.8888C25.9557 17.7572 26.1596 17.6854 26.3698 17.6854H30.7395L38.0423 28.0226C38.3745 28.4862 38.5345 29.0215 38.5345 29.5528C38.5345 30.3722 38.152 31.1803 37.4341 31.6942C36.2526 32.5392 34.6096 32.2675 33.7635 31.086L33.1113 30.1753C33.9399 31.3547 33.6651 32.9854 32.4898 33.8274C32.0252 34.1596 31.4898 34.3196 30.9596 34.3196C30.1402 34.3196 29.332 33.9371 28.8182 33.2202L28.529 32.8161C29.3731 33.9976 29.1003 35.6396 27.9198 36.4846C27.4563 36.8169 26.9209 36.9769 26.3907 36.9769C25.5702 36.9769 24.7621 36.5944 24.2482 35.8765L24.0852 35.6488C24.9313 36.8302 24.6595 38.4742 23.478 39.3203C23.0145 39.6526 22.4791 39.8126 21.9489 39.8126C21.1284 39.8126 20.3203 39.4301 19.8065 38.7122L13.7371 30.1281C13.6653 30.0266 13.5494 29.9671 13.4264 29.9671L3.76953 29.9835V13.4071H11.0563L11.849 12.5887C12.9228 11.4811 14.3996 10.8555 15.9431 10.8555H24.3585Z" fill="#FFCB38"/>
<path d="M24.3585 10.8555L24.7385 11.1804C24.8653 11.0321 24.8942 10.8235 24.8126 10.6463C24.7309 10.469 24.5536 10.3555 24.3585 10.3555V10.8555ZM24.3579 10.8561L24.7379 11.181L24.738 11.181L24.3579 10.8561ZM18.1358 18.1315L18.5155 18.4568L18.5158 18.4565L18.1358 18.1315ZM18.2578 21.2831L17.9043 21.6367V21.6367L18.2578 21.2831ZM21.354 21.4513L21.041 21.0614L21.0408 21.0615L21.354 21.4513ZM25.7917 17.8888L25.4788 17.4988L25.4787 17.4989L25.7917 17.8888ZM30.7395 17.6854L31.1479 17.3969C31.0542 17.2642 30.9019 17.1854 30.7395 17.1854V17.6854ZM38.0423 28.0226L37.6339 28.3111L37.6359 28.3139L38.0423 28.0226ZM37.4341 31.6942L37.725 32.1008L37.7251 32.1008L37.4341 31.6942ZM33.7635 31.086L34.1701 30.7949L34.17 30.7949L33.7635 31.086ZM33.1113 30.1753L33.5178 29.8841C33.3575 29.6604 33.0465 29.6082 32.822 29.7675C32.5975 29.9267 32.5439 30.2375 32.7022 30.4627L33.1113 30.1753ZM32.4898 33.8274L32.7807 34.234L32.781 34.2338L32.4898 33.8274ZM28.8182 33.2202L28.4116 33.5112L28.4118 33.5115L28.8182 33.2202ZM28.529 32.8161L28.9356 32.5251C28.7749 32.3007 28.4627 32.2489 28.2382 32.4094C28.0136 32.57 27.9617 32.8822 28.1222 33.1068L28.529 32.8161ZM27.9198 36.4846L27.6288 36.0781L27.6285 36.0782L27.9198 36.4846ZM24.2482 35.8765L24.6548 35.5855L24.6547 35.5853L24.2482 35.8765ZM24.0852 35.6488L24.4917 35.3576C24.3309 35.1331 24.0186 35.0815 23.7941 35.2423C23.5695 35.4031 23.5179 35.7154 23.6787 35.9399L24.0852 35.6488ZM23.478 39.3203L23.1869 38.9138L23.1867 38.914L23.478 39.3203ZM19.8065 38.7122L19.3982 39.0008L19.3999 39.0032L19.8065 38.7122ZM13.7371 30.1281L14.1454 29.8394L14.1454 29.8394L13.7371 30.1281ZM13.4264 29.9671V29.4671H13.4255L13.4264 29.9671ZM3.76953 29.9835H3.26953C3.26953 30.1163 3.32233 30.2436 3.41628 30.3374C3.51023 30.4311 3.63763 30.4837 3.77038 30.4835L3.76953 29.9835ZM3.76953 13.4071V12.9071C3.49339 12.9071 3.26953 13.131 3.26953 13.4071H3.76953ZM11.0563 13.4071V13.9071C11.1916 13.9071 11.3212 13.8522 11.4154 13.755L11.0563 13.4071ZM11.849 12.5887L11.49 12.2407L11.4899 12.2408L11.849 12.5887ZM23.9784 10.5305L23.9779 10.5312L24.738 11.181L24.7385 11.1804L23.9784 10.5305ZM23.978 10.5311L17.7558 17.8065L18.5158 18.4565L24.7379 11.181L23.978 10.5311ZM17.756 17.8063C17.3023 18.336 17.0779 18.9899 17.0779 19.6412H18.0779C18.0779 19.2197 18.2226 18.7987 18.5155 18.4568L17.756 17.8063ZM17.0779 19.6412C17.0779 20.3647 17.3558 21.0882 17.9043 21.6367L18.6114 20.9296C18.2573 20.5755 18.0779 20.1094 18.0779 19.6412H17.0779ZM17.9043 21.6367C18.9225 22.6549 20.5442 22.7435 21.6672 21.8411L21.0408 21.0615C20.3158 21.6442 19.2689 21.5871 18.6114 20.9296L17.9043 21.6367ZM21.667 21.8412L26.1047 18.2787L25.4787 17.4989L21.041 21.0614L21.667 21.8412ZM26.1046 18.2787C26.18 18.2183 26.2735 18.1854 26.3698 18.1854V17.1854C26.0456 17.1854 25.7314 17.2961 25.4788 17.4988L26.1046 18.2787ZM26.3698 18.1854H30.7395V17.1854H26.3698V18.1854ZM30.3312 17.9739L37.6339 28.3111L38.4506 27.7341L31.1479 17.3969L30.3312 17.9739ZM37.6359 28.3139C37.9052 28.6897 38.0345 29.1224 38.0345 29.5528H39.0345C39.0345 28.9206 38.8439 28.2827 38.4486 27.7313L37.6359 28.3139ZM38.0345 29.5528C38.0345 30.2176 37.7244 30.8715 37.1431 31.2876L37.7251 32.1008C38.5796 31.4892 39.0345 30.5267 39.0345 29.5528H38.0345ZM37.1432 31.2875C36.1862 31.972 34.8554 31.7519 34.1701 30.7949L33.357 31.3771C34.3639 32.7831 36.3191 33.1064 37.725 32.1008L37.1432 31.2875ZM34.17 30.7949L33.5178 29.8841L32.7048 30.4664L33.3571 31.3771L34.17 30.7949ZM32.7022 30.4627C33.3732 31.4179 33.1507 32.7388 32.1986 33.4209L32.781 34.2338C34.1795 33.2319 34.5066 31.2915 33.5204 29.8878L32.7022 30.4627ZM32.1989 33.4207C31.8217 33.6904 31.3887 33.8196 30.9596 33.8196V34.8196C31.5909 34.8196 32.2286 34.6289 32.7807 34.234L32.1989 33.4207ZM30.9596 33.8196C30.2947 33.8196 29.6407 33.5094 29.2246 32.9289L28.4118 33.5115C29.0234 34.3647 29.9857 34.8196 30.9596 34.8196V33.8196ZM29.2248 32.9292L28.9356 32.5251L28.1224 33.1072L28.4116 33.5112L29.2248 32.9292ZM28.1222 33.1068C28.8058 34.0637 28.5848 35.3936 27.6288 36.0781L28.2109 36.8912C29.6157 35.8855 29.9403 33.9315 28.9358 32.5255L28.1222 33.1068ZM27.6285 36.0782C27.2527 36.3477 26.8199 36.4769 26.3907 36.4769V37.4769C27.0219 37.4769 27.6598 37.2862 28.2111 36.891L27.6285 36.0782ZM26.3907 36.4769C25.7247 36.4769 25.0708 36.1667 24.6548 35.5855L23.8417 36.1675C24.4533 37.022 25.4158 37.4769 26.3907 37.4769V36.4769ZM24.6547 35.5853L24.4917 35.3576L23.6787 35.9399L23.8417 36.1676L24.6547 35.5853ZM23.6787 35.9399C24.364 36.8969 24.1438 38.2285 23.1869 38.9138L23.7692 39.7269C25.1752 38.7199 25.4985 36.7636 24.4917 35.3577L23.6787 35.9399ZM23.1867 38.914C22.8109 39.1834 22.3781 39.3126 21.9489 39.3126V40.3126C22.5801 40.3126 23.2181 40.1219 23.7693 39.7267L23.1867 38.914ZM21.9489 39.3126C21.2829 39.3126 20.6291 39.0024 20.2131 38.4212L19.3999 39.0032C20.0115 39.8577 20.974 40.3126 21.9489 40.3126V39.3126ZM20.2147 38.4235L14.1454 29.8394L13.3289 30.4168L19.3982 39.0008L20.2147 38.4235ZM14.1454 29.8394C13.9796 29.605 13.7113 29.4671 13.4264 29.4671V30.4671C13.3876 30.4671 13.3511 30.4482 13.3289 30.4168L14.1454 29.8394ZM13.4255 29.4671L3.76868 29.4835L3.77038 30.4835L13.4272 30.4671L13.4255 29.4671ZM4.26953 29.9835V13.4071H3.26953V29.9835H4.26953ZM3.76953 13.9071H11.0563V12.9071H3.76953V13.9071ZM11.4154 13.755L12.2082 12.9366L11.4899 12.2408L10.6971 13.0592L11.4154 13.755ZM12.208 12.9367C13.1877 11.9262 14.535 11.3555 15.9431 11.3555V10.3555C14.2643 10.3555 12.6579 11.0359 11.49 12.2407L12.208 12.9367ZM15.9431 11.3555H24.3585V10.3555H15.9431V11.3555Z" fill="#332105"/>
<path fill-rule="evenodd" clip-rule="evenodd" d="M26.3082 9.94922H31.6955L31.6955 9.95117H36.1277C37.504 9.95117 38.8321 10.4578 39.8577 11.3747L42.357 13.6084H49.1874V29.9643H38.4833C38.5044 29.8296 38.515 29.6933 38.515 29.5567C38.515 29.0254 38.355 28.4901 38.0227 28.0265L30.7196 17.6887L30.7174 17.6864H29.2695V17.682H30.2613L26.3623 17.68C26.152 17.68 25.9481 17.7518 25.7842 17.8834L21.3465 21.4459C20.4224 22.1885 19.0882 22.1156 18.2503 21.2777C17.799 20.8265 17.5703 20.2317 17.5703 19.6358C17.5703 19.0994 17.7549 18.562 18.1282 18.1261L24.3504 10.8507C24.8406 10.2784 25.5555 9.94922 26.3082 9.94922Z" fill="#FFCB38"/>
<path d="M31.6955 9.94922L32.1954 9.9397C32.1902 9.66732 31.9679 9.44922 31.6955 9.44922V9.94922ZM31.6955 9.95117L31.1956 9.96069C31.2008 10.2331 31.4231 10.4512 31.6955 10.4512V9.95117ZM39.8577 11.3747L39.5244 11.7474L39.5245 11.7475L39.8577 11.3747ZM42.357 13.6084L42.0238 13.9812C42.1155 14.0631 42.2341 14.1084 42.357 14.1084V13.6084ZM49.1874 13.6084H49.6874C49.6874 13.3322 49.4635 13.1084 49.1874 13.1084V13.6084ZM49.1874 29.9643V30.4643C49.4635 30.4643 49.6874 30.2404 49.6874 29.9643H49.1874ZM38.4833 29.9643L37.9893 29.8871C37.9668 30.0314 38.0085 30.1784 38.1034 30.2894C38.1984 30.4004 38.3372 30.4643 38.4833 30.4643V29.9643ZM38.0227 28.0265L37.6143 28.315L37.6163 28.3178L38.0227 28.0265ZM30.7196 17.6887L31.128 17.4002C31.1149 17.3817 31.1006 17.3641 31.0851 17.3475L30.7196 17.6887ZM30.7174 17.6864L31.083 17.3452C30.9884 17.2439 30.856 17.1864 30.7174 17.1864V17.6864ZM29.2695 17.6864H28.7695C28.7695 17.9625 28.9934 18.1864 29.2695 18.1864V17.6864ZM29.2695 17.682V17.182C28.9934 17.182 28.7695 17.4058 28.7695 17.682H29.2695ZM30.2613 17.682V18.182C30.5374 18.182 30.7612 17.9582 30.7613 17.6821C30.7613 17.406 30.5376 17.1821 30.2615 17.182L30.2613 17.682ZM26.3623 17.68L26.3625 17.18H26.3623V17.68ZM25.7842 17.8834L25.4712 17.4934L25.4711 17.4935L25.7842 17.8834ZM21.3465 21.4459L21.0335 21.056L21.0333 21.0562L21.3465 21.4459ZM18.2503 21.2777L17.8967 21.6313H17.8967L18.2503 21.2777ZM18.1282 18.1261L18.508 18.4514L18.5082 18.4511L18.1282 18.1261ZM24.3504 10.8507L23.9707 10.5254L23.9704 10.5257L24.3504 10.8507ZM31.6955 9.44922H26.3082V10.4492H31.6955V9.44922ZM32.1954 9.94165L32.1954 9.9397L31.1956 9.95874L31.1956 9.96069L32.1954 9.94165ZM31.6955 10.4512H36.1277V9.45117H31.6955V10.4512ZM36.1277 10.4512C37.3812 10.4512 38.5906 10.9126 39.5244 11.7474L40.1909 11.0019C39.0736 10.003 37.6268 9.45117 36.1277 9.45117V10.4512ZM39.5245 11.7475L42.0238 13.9812L42.6902 13.2356L40.1909 11.0019L39.5245 11.7475ZM42.357 14.1084H49.1874V13.1084H42.357V14.1084ZM48.6874 13.6084V29.9643H49.6874V13.6084H48.6874ZM49.1874 29.4643H38.4833V30.4643H49.1874V29.4643ZM38.9773 30.0415C39.0023 29.8813 39.015 29.7192 39.015 29.5567H38.015C38.015 29.6673 38.0064 29.7778 37.9893 29.8871L38.9773 30.0415ZM39.015 29.5567C39.015 28.9245 38.8243 28.2866 38.4291 27.7352L37.6163 28.3178C37.8857 28.6936 38.015 29.1263 38.015 29.5567H39.015ZM38.4311 27.738L31.128 17.4002L30.3112 17.9772L37.6143 28.315L38.4311 27.738ZM31.0851 17.3475L31.083 17.3452L30.3519 18.0275L30.3541 18.0298L31.0851 17.3475ZM30.7174 17.1864H29.2695V18.1864H30.7174V17.1864ZM29.7695 17.6864V17.682H28.7695V17.6864H29.7695ZM29.2695 18.182H30.2613V17.182H29.2695V18.182ZM26.362 18.18L30.261 18.182L30.2615 17.182L26.3625 17.18L26.362 18.18ZM26.0971 18.2734C26.1724 18.2129 26.266 18.18 26.3623 18.18V17.18C26.0381 17.18 25.7238 17.2907 25.4712 17.4934L26.0971 18.2734ZM21.6595 21.8358L26.0972 18.2733L25.4711 17.4935L21.0335 21.056L21.6595 21.8358ZM17.8967 21.6313C18.915 22.6496 20.5366 22.7381 21.6597 21.8357L21.0333 21.0562C20.3082 21.6388 19.2613 21.5817 18.6038 20.9242L17.8967 21.6313ZM17.0703 19.6358C17.0703 20.3593 17.3482 21.0828 17.8967 21.6313L18.6038 20.9242C18.2498 20.5702 18.0703 20.104 18.0703 19.6358H17.0703ZM17.7485 17.8009C17.2947 18.3307 17.0703 18.9845 17.0703 19.6358H18.0703C18.0703 19.2143 18.2151 18.7934 18.508 18.4514L17.7485 17.8009ZM23.9704 10.5257L17.7482 17.8012L18.5082 18.4511L24.7304 11.1757L23.9704 10.5257ZM26.3082 9.44922C25.4092 9.44922 24.5558 9.84242 23.9707 10.5254L24.7301 11.176C25.1255 10.7144 25.7017 10.4492 26.3082 10.4492V9.44922Z" fill="#332105"/>
<path d="M52.0026 12.7058V30.8448C52.0026 31.2852 51.6455 31.6423 51.205 31.6423H44.9999C44.4477 31.6423 44 31.1947 44 30.6424V12.9081C44 12.3559 44.4477 11.9082 44.9999 11.9082H51.205C51.6455 11.9082 52.0026 12.2653 52.0026 12.7058Z" fill="#FFCB38" stroke="#332105" stroke-linecap="round" stroke-linejoin="round"/>
<path d="M9.10513 12.9081V30.6424C9.10513 31.1947 8.65747 31.6423 8.1052 31.6423H1.57125C1.25578 31.6423 1 31.3866 1 31.0711V12.4794C1 12.164 1.25578 11.9082 1.57125 11.9082H8.1052C8.65747 11.9082 9.10513 12.3559 9.10513 12.9081Z" fill="#FFCB38" stroke="#332105" stroke-linecap="round" stroke-linejoin="round"/>
<path d="M17.2148 46.6406L18.7889 43.0204" stroke="#332105" stroke-linecap="round" stroke-linejoin="round"/>
<path d="M26.5039 48.5312V44.2814" stroke="#332105" stroke-linecap="round" stroke-linejoin="round"/>
<path d="M35.9463 46.4863L34.2148 42.8661" stroke="#332105" stroke-linecap="round" stroke-linejoin="round"/>
<path d="M17.2148 2.89062L18.7889 6.51084" stroke="#332105" stroke-linecap="round" stroke-linejoin="round"/>
<path d="M26.5039 1V5.24982" stroke="#332105" stroke-linecap="round" stroke-linejoin="round"/>
<path d="M35.9463 3.04492L34.2148 6.66514" stroke="#332105" stroke-linecap="round" stroke-linejoin="round"/>
</svg>
