<svg width="75" height="75" viewBox="0 0 75 75" fill="none" xmlns="http://www.w3.org/2000/svg">
<rect width="75" height="75" fill="#FFCB38"/>
<path fill-rule="evenodd" clip-rule="evenodd" d="M34.3585 25.8555C34.3583 25.8557 34.3581 25.8559 34.3579 25.8561L28.1358 33.1315C27.7625 33.5674 27.5779 34.1048 27.5779 34.6412C27.5779 35.237 27.8066 35.8319 28.2578 36.2831C29.0957 37.121 30.43 37.1938 31.354 36.4513L35.7917 32.8888C35.9557 32.7572 36.1596 32.6854 36.3698 32.6854H40.7395L48.0423 43.0226C48.3745 43.4862 48.5345 44.0215 48.5345 44.5528C48.5345 45.3722 48.152 46.1803 47.4341 46.6942C46.2526 47.5392 44.6096 47.2675 43.7635 46.086L43.1113 45.1753C43.9399 46.3547 43.6651 47.9854 42.4898 48.8274C42.0252 49.1596 41.4898 49.3196 40.9596 49.3196C40.1402 49.3196 39.332 48.9371 38.8182 48.2202L38.529 47.8161C39.3731 48.9976 39.1003 50.6396 37.9198 51.4846C37.4563 51.8169 36.9209 51.9769 36.3907 51.9769C35.5702 51.9769 34.7621 51.5944 34.2482 50.8765L34.0852 50.6488C34.9313 51.8302 34.6595 53.4742 33.478 54.3203C33.0145 54.6526 32.4791 54.8126 31.9489 54.8126C31.1284 54.8126 30.3203 54.4301 29.8065 53.7122L23.7371 45.1281C23.6653 45.0266 23.5494 44.9671 23.4264 44.9671L13.7695 44.9835V28.4071H21.0563L21.849 27.5887C22.9228 26.4811 24.3996 25.8555 25.9431 25.8555H34.3585Z" fill="#FFCB38"/>
<path d="M34.3585 25.8555L34.7385 26.1804C34.8653 26.0321 34.8942 25.8235 34.8126 25.6463C34.7309 25.469 34.5536 25.3555 34.3585 25.3555V25.8555ZM34.3579 25.8561L34.7379 26.181L34.738 26.181L34.3579 25.8561ZM28.1358 33.1315L28.5155 33.4568L28.5158 33.4565L28.1358 33.1315ZM28.2578 36.2831L27.9043 36.6367V36.6367L28.2578 36.2831ZM31.354 36.4513L31.041 36.0614L31.0408 36.0615L31.354 36.4513ZM35.7917 32.8888L35.4788 32.4988L35.4787 32.4989L35.7917 32.8888ZM40.7395 32.6854L41.1479 32.3969C41.0542 32.2642 40.9019 32.1854 40.7395 32.1854V32.6854ZM48.0423 43.0226L47.6339 43.3111L47.6359 43.3139L48.0423 43.0226ZM47.4341 46.6942L47.725 47.1008L47.7251 47.1008L47.4341 46.6942ZM43.7635 46.086L44.1701 45.7949L44.17 45.7949L43.7635 46.086ZM43.1113 45.1753L43.5178 44.8841C43.3575 44.6604 43.0465 44.6082 42.822 44.7675C42.5975 44.9267 42.5439 45.2375 42.7022 45.4627L43.1113 45.1753ZM42.4898 48.8274L42.7807 49.234L42.781 49.2338L42.4898 48.8274ZM38.8182 48.2202L38.4116 48.5112L38.4118 48.5115L38.8182 48.2202ZM38.529 47.8161L38.9356 47.5251C38.7749 47.3007 38.4627 47.2489 38.2382 47.4094C38.0136 47.57 37.9617 47.8822 38.1222 48.1068L38.529 47.8161ZM37.9198 51.4846L37.6288 51.0781L37.6285 51.0782L37.9198 51.4846ZM34.2482 50.8765L34.6548 50.5855L34.6547 50.5853L34.2482 50.8765ZM34.0852 50.6488L34.4917 50.3576C34.3309 50.1331 34.0186 50.0815 33.7941 50.2423C33.5695 50.4031 33.5179 50.7154 33.6787 50.9399L34.0852 50.6488ZM33.478 54.3203L33.1869 53.9138L33.1867 53.914L33.478 54.3203ZM29.8065 53.7122L29.3982 54.0008L29.3999 54.0032L29.8065 53.7122ZM23.7371 45.1281L24.1454 44.8394L24.1454 44.8394L23.7371 45.1281ZM23.4264 44.9671V44.4671H23.4255L23.4264 44.9671ZM13.7695 44.9835H13.2695C13.2695 45.1163 13.3223 45.2436 13.4163 45.3374C13.5102 45.4311 13.6376 45.4837 13.7704 45.4835L13.7695 44.9835ZM13.7695 28.4071V27.9071C13.4934 27.9071 13.2695 28.131 13.2695 28.4071H13.7695ZM21.0563 28.4071V28.9071C21.1916 28.9071 21.3212 28.8522 21.4154 28.755L21.0563 28.4071ZM21.849 27.5887L21.49 27.2407L21.4899 27.2408L21.849 27.5887ZM33.9784 25.5305L33.9779 25.5312L34.738 26.181L34.7385 26.1804L33.9784 25.5305ZM33.978 25.5311L27.7558 32.8065L28.5158 33.4565L34.7379 26.181L33.978 25.5311ZM27.756 32.8063C27.3023 33.336 27.0779 33.9899 27.0779 34.6412H28.0779C28.0779 34.2197 28.2226 33.7987 28.5155 33.4568L27.756 32.8063ZM27.0779 34.6412C27.0779 35.3647 27.3558 36.0882 27.9043 36.6367L28.6114 35.9296C28.2573 35.5755 28.0779 35.1094 28.0779 34.6412H27.0779ZM27.9043 36.6367C28.9225 37.6549 30.5442 37.7435 31.6672 36.8411L31.0408 36.0615C30.3158 36.6442 29.2689 36.5871 28.6114 35.9296L27.9043 36.6367ZM31.667 36.8412L36.1047 33.2787L35.4787 32.4989L31.041 36.0614L31.667 36.8412ZM36.1046 33.2787C36.18 33.2183 36.2735 33.1854 36.3698 33.1854V32.1854C36.0456 32.1854 35.7314 32.2961 35.4788 32.4988L36.1046 33.2787ZM36.3698 33.1854H40.7395V32.1854H36.3698V33.1854ZM40.3312 32.9739L47.6339 43.3111L48.4506 42.7341L41.1479 32.3969L40.3312 32.9739ZM47.6359 43.3139C47.9052 43.6897 48.0345 44.1224 48.0345 44.5528H49.0345C49.0345 43.9206 48.8439 43.2827 48.4486 42.7313L47.6359 43.3139ZM48.0345 44.5528C48.0345 45.2176 47.7244 45.8715 47.1431 46.2876L47.7251 47.1008C48.5796 46.4892 49.0345 45.5267 49.0345 44.5528H48.0345ZM47.1432 46.2875C46.1862 46.972 44.8554 46.7519 44.1701 45.7949L43.357 46.3771C44.3639 47.7831 46.3191 48.1064 47.725 47.1008L47.1432 46.2875ZM44.17 45.7949L43.5178 44.8841L42.7048 45.4664L43.3571 46.3771L44.17 45.7949ZM42.7022 45.4627C43.3732 46.4179 43.1507 47.7388 42.1986 48.4209L42.781 49.2338C44.1795 48.2319 44.5066 46.2915 43.5204 44.8878L42.7022 45.4627ZM42.1989 48.4207C41.8217 48.6904 41.3887 48.8196 40.9596 48.8196V49.8196C41.5909 49.8196 42.2286 49.6289 42.7807 49.234L42.1989 48.4207ZM40.9596 48.8196C40.2947 48.8196 39.6407 48.5094 39.2246 47.9289L38.4118 48.5115C39.0234 49.3647 39.9857 49.8196 40.9596 49.8196V48.8196ZM39.2248 47.9292L38.9356 47.5251L38.1224 48.1072L38.4116 48.5112L39.2248 47.9292ZM38.1222 48.1068C38.8058 49.0637 38.5848 50.3936 37.6288 51.0781L38.2109 51.8912C39.6157 50.8855 39.9403 48.9315 38.9358 47.5255L38.1222 48.1068ZM37.6285 51.0782C37.2527 51.3477 36.8199 51.4769 36.3907 51.4769V52.4769C37.0219 52.4769 37.6598 52.2862 38.2111 51.891L37.6285 51.0782ZM36.3907 51.4769C35.7247 51.4769 35.0708 51.1667 34.6548 50.5855L33.8417 51.1675C34.4533 52.022 35.4158 52.4769 36.3907 52.4769V51.4769ZM34.6547 50.5853L34.4917 50.3576L33.6787 50.9399L33.8417 51.1676L34.6547 50.5853ZM33.6787 50.9399C34.364 51.8969 34.1438 53.2285 33.1869 53.9138L33.7692 54.7269C35.1752 53.7199 35.4985 51.7636 34.4917 50.3577L33.6787 50.9399ZM33.1867 53.914C32.8109 54.1834 32.3781 54.3126 31.9489 54.3126V55.3126C32.5801 55.3126 33.2181 55.1219 33.7693 54.7267L33.1867 53.914ZM31.9489 54.3126C31.2829 54.3126 30.6291 54.0024 30.2131 53.4212L29.3999 54.0032C30.0115 54.8577 30.974 55.3126 31.9489 55.3126V54.3126ZM30.2147 53.4235L24.1454 44.8394L23.3289 45.4168L29.3982 54.0008L30.2147 53.4235ZM24.1454 44.8394C23.9796 44.605 23.7113 44.4671 23.4264 44.4671V45.4671C23.3876 45.4671 23.3511 45.4482 23.3289 45.4168L24.1454 44.8394ZM23.4255 44.4671L13.7687 44.4835L13.7704 45.4835L23.4272 45.4671L23.4255 44.4671ZM14.2695 44.9835V28.4071H13.2695V44.9835H14.2695ZM13.7695 28.9071H21.0563V27.9071H13.7695V28.9071ZM21.4154 28.755L22.2082 27.9366L21.4899 27.2408L20.6971 28.0592L21.4154 28.755ZM22.208 27.9367C23.1877 26.9262 24.535 26.3555 25.9431 26.3555V25.3555C24.2643 25.3555 22.6579 26.0359 21.49 27.2407L22.208 27.9367ZM25.9431 26.3555H34.3585V25.3555H25.9431V26.3555Z" fill="#332105"/>
<path fill-rule="evenodd" clip-rule="evenodd" d="M36.3082 24.9492H41.6955L41.6955 24.9512H46.1277C47.504 24.9512 48.8321 25.4578 49.8577 26.3747L52.357 28.6084H59.1874V44.9643H48.4833C48.5044 44.8296 48.515 44.6933 48.515 44.5567C48.515 44.0254 48.355 43.4901 48.0227 43.0265L40.7196 32.6887L40.7174 32.6864H39.2695V32.682H40.2613L36.3623 32.68C36.152 32.68 35.9481 32.7518 35.7842 32.8834L31.3465 36.4459C30.4224 37.1885 29.0882 37.1156 28.2503 36.2777C27.799 35.8265 27.5703 35.2317 27.5703 34.6358C27.5703 34.0994 27.7549 33.562 28.1282 33.1261L34.3504 25.8507C34.8406 25.2784 35.5555 24.9492 36.3082 24.9492Z" fill="#FFCB38"/>
<path d="M41.6955 24.9492L42.1954 24.9397C42.1902 24.6673 41.9679 24.4492 41.6955 24.4492V24.9492ZM41.6955 24.9512L41.1956 24.9607C41.2008 25.2331 41.4231 25.4512 41.6955 25.4512V24.9512ZM49.8577 26.3747L49.5244 26.7474L49.5245 26.7475L49.8577 26.3747ZM52.357 28.6084L52.0238 28.9812C52.1155 29.0631 52.2341 29.1084 52.357 29.1084V28.6084ZM59.1874 28.6084H59.6874C59.6874 28.3322 59.4635 28.1084 59.1874 28.1084V28.6084ZM59.1874 44.9643V45.4643C59.4635 45.4643 59.6874 45.2404 59.6874 44.9643H59.1874ZM48.4833 44.9643L47.9893 44.8871C47.9668 45.0314 48.0085 45.1784 48.1034 45.2894C48.1984 45.4004 48.3372 45.4643 48.4833 45.4643V44.9643ZM48.0227 43.0265L47.6143 43.315L47.6163 43.3178L48.0227 43.0265ZM40.7196 32.6887L41.128 32.4002C41.1149 32.3817 41.1006 32.3641 41.0851 32.3475L40.7196 32.6887ZM40.7174 32.6864L41.083 32.3452C40.9884 32.2439 40.856 32.1864 40.7174 32.1864V32.6864ZM39.2695 32.6864H38.7695C38.7695 32.9625 38.9934 33.1864 39.2695 33.1864V32.6864ZM39.2695 32.682V32.182C38.9934 32.182 38.7695 32.4058 38.7695 32.682H39.2695ZM40.2613 32.682V33.182C40.5374 33.182 40.7612 32.9582 40.7613 32.6821C40.7613 32.406 40.5376 32.1821 40.2615 32.182L40.2613 32.682ZM36.3623 32.68L36.3625 32.18H36.3623V32.68ZM35.7842 32.8834L35.4712 32.4934L35.4711 32.4935L35.7842 32.8834ZM31.3465 36.4459L31.0335 36.056L31.0333 36.0562L31.3465 36.4459ZM28.2503 36.2777L27.8967 36.6313H27.8967L28.2503 36.2777ZM28.1282 33.1261L28.508 33.4514L28.5082 33.4511L28.1282 33.1261ZM34.3504 25.8507L33.9707 25.5254L33.9704 25.5257L34.3504 25.8507ZM41.6955 24.4492H36.3082V25.4492H41.6955V24.4492ZM42.1954 24.9417L42.1954 24.9397L41.1956 24.9587L41.1956 24.9607L42.1954 24.9417ZM41.6955 25.4512H46.1277V24.4512H41.6955V25.4512ZM46.1277 25.4512C47.3812 25.4512 48.5906 25.9126 49.5244 26.7474L50.1909 26.0019C49.0736 25.003 47.6268 24.4512 46.1277 24.4512V25.4512ZM49.5245 26.7475L52.0238 28.9812L52.6902 28.2356L50.1909 26.0019L49.5245 26.7475ZM52.357 29.1084H59.1874V28.1084H52.357V29.1084ZM58.6874 28.6084V44.9643H59.6874V28.6084H58.6874ZM59.1874 44.4643H48.4833V45.4643H59.1874V44.4643ZM48.9773 45.0415C49.0023 44.8813 49.015 44.7192 49.015 44.5567H48.015C48.015 44.6673 48.0064 44.7778 47.9893 44.8871L48.9773 45.0415ZM49.015 44.5567C49.015 43.9245 48.8243 43.2866 48.4291 42.7352L47.6163 43.3178C47.8857 43.6936 48.015 44.1263 48.015 44.5567H49.015ZM48.4311 42.738L41.128 32.4002L40.3112 32.9772L47.6143 43.315L48.4311 42.738ZM41.0851 32.3475L41.083 32.3452L40.3519 33.0275L40.3541 33.0298L41.0851 32.3475ZM40.7174 32.1864H39.2695V33.1864H40.7174V32.1864ZM39.7695 32.6864V32.682H38.7695V32.6864H39.7695ZM39.2695 33.182H40.2613V32.182H39.2695V33.182ZM36.362 33.18L40.261 33.182L40.2615 32.182L36.3625 32.18L36.362 33.18ZM36.0971 33.2734C36.1724 33.2129 36.266 33.18 36.3623 33.18V32.18C36.0381 32.18 35.7238 32.2907 35.4712 32.4934L36.0971 33.2734ZM31.6595 36.8358L36.0972 33.2733L35.4711 32.4935L31.0335 36.056L31.6595 36.8358ZM27.8967 36.6313C28.915 37.6496 30.5366 37.7381 31.6597 36.8357L31.0333 36.0562C30.3082 36.6388 29.2613 36.5817 28.6038 35.9242L27.8967 36.6313ZM27.0703 34.6358C27.0703 35.3593 27.3482 36.0828 27.8967 36.6313L28.6038 35.9242C28.2498 35.5702 28.0703 35.104 28.0703 34.6358H27.0703ZM27.7485 32.8009C27.2947 33.3307 27.0703 33.9845 27.0703 34.6358H28.0703C28.0703 34.2143 28.2151 33.7934 28.508 33.4514L27.7485 32.8009ZM33.9704 25.5257L27.7482 32.8012L28.5082 33.4511L34.7304 26.1757L33.9704 25.5257ZM36.3082 24.4492C35.4092 24.4492 34.5558 24.8424 33.9707 25.5254L34.7301 26.176C35.1255 25.7144 35.7017 25.4492 36.3082 25.4492V24.4492Z" fill="#332105"/>
<path d="M62.0026 27.7058V45.8448C62.0026 46.2852 61.6455 46.6423 61.205 46.6423H54.9999C54.4477 46.6423 54 46.1947 54 45.6424V27.9081C54 27.3559 54.4477 26.9082 54.9999 26.9082H61.205C61.6455 26.9082 62.0026 27.2653 62.0026 27.7058Z" fill="#FFCB38" stroke="#332105" stroke-linecap="round" stroke-linejoin="round"/>
<path d="M19.1051 27.9081V45.6424C19.1051 46.1947 18.6575 46.6423 18.1052 46.6423H11.5712C11.2558 46.6423 11 46.3866 11 46.0711V27.4794C11 27.164 11.2558 26.9082 11.5712 26.9082H18.1052C18.6575 26.9082 19.1051 27.3559 19.1051 27.9081Z" fill="#FFCB38" stroke="#332105" stroke-linecap="round" stroke-linejoin="round"/>
<path d="M27.2148 61.6406L28.7889 58.0204" stroke="#332105" stroke-linecap="round" stroke-linejoin="round"/>
<path d="M36.5039 63.5312V59.2814" stroke="#332105" stroke-linecap="round" stroke-linejoin="round"/>
<path d="M45.9463 61.4863L44.2148 57.8661" stroke="#332105" stroke-linecap="round" stroke-linejoin="round"/>
<path d="M27.2148 17.8906L28.7889 21.5108" stroke="#332105" stroke-linecap="round" stroke-linejoin="round"/>
<path d="M36.5039 16V20.2498" stroke="#332105" stroke-linecap="round" stroke-linejoin="round"/>
<path d="M45.9463 18.0449L44.2148 21.6651" stroke="#332105" stroke-linecap="round" stroke-linejoin="round"/>
</svg>
