<svg width="82" height="21" viewBox="0 0 82 21" fill="none" xmlns="http://www.w3.org/2000/svg">
<path d="M1 20H10" stroke="#332105" stroke-linecap="round" stroke-linejoin="round"/>
<path d="M72 20L81 20" stroke="#332105" stroke-linecap="round" stroke-linejoin="round"/>
<path d="M1 20C24.2099 -5.58357 59.2716 -5.08189 81 20" stroke="#332105" stroke-linecap="round" stroke-linejoin="round"/>
<path d="M10 19.8389C28.9785 2.52691 53.9606 2.86191 72 20" stroke="#332105" stroke-linecap="round" stroke-linejoin="round"/>
<path d="M7 14.5L15.5 15.5" stroke="#332105" stroke-linecap="round" stroke-linejoin="round"/>
<path d="M17 7.5L15.5 15.5" stroke="#332105" stroke-linecap="round" stroke-linejoin="round"/>
<path d="M17 7.5L25.5 10" stroke="#332105" stroke-linecap="round" stroke-linejoin="round"/>
<path d="M29 2.5L25.5 10" stroke="#332105" stroke-linecap="round" stroke-linejoin="round"/>
<path d="M29 2.5L35.5 7" stroke="#332105" stroke-linecap="round" stroke-linejoin="round"/>
<path d="M41 1L35.5 7" stroke="#332105" stroke-linecap="round" stroke-linejoin="round"/>
<path d="M7 14.5V20" stroke="#332105" stroke-linecap="round" stroke-linejoin="round"/>
<path d="M75 14.5L66.5 15.5" stroke="#332105" stroke-linecap="round" stroke-linejoin="round"/>
<path d="M65 7.5L66.5 15.5" stroke="#332105" stroke-linecap="round" stroke-linejoin="round"/>
<path d="M65 7.5L56.5 10" stroke="#332105" stroke-linecap="round" stroke-linejoin="round"/>
<path d="M53 2.5L56.5 10" stroke="#332105" stroke-linecap="round" stroke-linejoin="round"/>
<path d="M53 2.5L46.5 7" stroke="#332105" stroke-linecap="round" stroke-linejoin="round"/>
<path d="M41 1L46.5 7" stroke="#332105" stroke-linecap="round" stroke-linejoin="round"/>
<path d="M75 14.5V20" stroke="#332105" stroke-linecap="round" stroke-linejoin="round"/>
<path d="M75 14.5V20" stroke="#332105" stroke-linecap="round" stroke-linejoin="round"/>
</svg>
