<svg width="83" height="21" viewBox="0 0 83 21" fill="none" xmlns="http://www.w3.org/2000/svg">
<path d="M41.5 1L34 11" stroke="#332105" stroke-linecap="round" stroke-linejoin="round"/>
<path d="M41.5 1L49 11" stroke="#332105" stroke-linecap="round" stroke-linejoin="round"/>
<path d="M26.4049 3.61911L21.9962 12.6332" stroke="#332105" stroke-linecap="round" stroke-linejoin="round"/>
<path d="M26.4037 3.61917L33.1329 11.0629" stroke="#332105" stroke-linecap="round" stroke-linejoin="round"/>
<path d="M16.5165 8.36046L13.7513 14.6498" stroke="#332105" stroke-linecap="round" stroke-linejoin="round"/>
<path d="M16.5148 8.35829L22.0013 12.4935" stroke="#332105" stroke-linecap="round" stroke-linejoin="round"/>
<path d="M9.99831 12.5006L13.4846 14.2128" stroke="#332105" stroke-linecap="round" stroke-linejoin="round"/>
<path d="M7.49902 16.9995L9.5 12.5" stroke="#332105" stroke-linecap="round" stroke-linejoin="round"/>
<path d="M56.7279 3.61911L61.1367 12.6332" stroke="#332105" stroke-linecap="round" stroke-linejoin="round"/>
<path d="M56.7291 3.61917L49.9999 11.0629" stroke="#332105" stroke-linecap="round" stroke-linejoin="round"/>
<path d="M66.6163 8.36046L69.3815 14.6498" stroke="#332105" stroke-linecap="round" stroke-linejoin="round"/>
<path d="M66.6181 8.35829L61.1315 12.4935" stroke="#332105" stroke-linecap="round" stroke-linejoin="round"/>
<path d="M73.1345 12.5006L69.6482 14.2128" stroke="#332105" stroke-linecap="round" stroke-linejoin="round"/>
<path d="M75.6338 16.9995L73.6328 12.5" stroke="#332105" stroke-linecap="round" stroke-linejoin="round"/>
<path d="M1 19.9379C24.5 -5.56205 60 -5.06201 82 19.9379" stroke="#332105" stroke-linecap="round" stroke-linejoin="round"/>
<path d="M1 20C24.5 7.88147 60 8.1191 82 20" stroke="#332105" stroke-linecap="round" stroke-linejoin="round"/>
</svg>
