<svg width="82" height="20" viewBox="0 0 82 20" fill="none" xmlns="http://www.w3.org/2000/svg">
<path d="M8 16L13 17" stroke="#332105" stroke-linecap="round" stroke-linejoin="round"/>
<path d="M17 12L23 15.5" stroke="#332105" stroke-linecap="round" stroke-linejoin="round"/>
<path d="M29 6.5L36 13.5" stroke="#332105" stroke-linecap="round" stroke-linejoin="round"/>
<path d="M53 6.5L46 13.5" stroke="#332105" stroke-linecap="round" stroke-linejoin="round"/>
<path d="M65 12L59 15.5" stroke="#332105" stroke-linecap="round" stroke-linejoin="round"/>
<path d="M74 16L69 17" stroke="#332105" stroke-linecap="round" stroke-linejoin="round"/>
<path d="M8 18L8 16" stroke="#332105" stroke-linecap="round" stroke-linejoin="round"/>
<path d="M74 18L74 16" stroke="#332105" stroke-linecap="round" stroke-linejoin="round"/>
<path d="M41 13L41 1" stroke="#332105" stroke-linecap="round" stroke-linejoin="round"/>
<path d="M29 14L29 7" stroke="#332105" stroke-linecap="round" stroke-linejoin="round"/>
<path d="M17 16L17 12" stroke="#332105" stroke-linecap="round" stroke-linejoin="round"/>
<path d="M65 16L65 12" stroke="#332105" stroke-linecap="round" stroke-linejoin="round"/>
<path d="M53 14L53 7" stroke="#332105" stroke-linecap="round" stroke-linejoin="round"/>
<path d="M1 19L41 13" stroke="#332105" stroke-linecap="round" stroke-linejoin="round"/>
<path d="M41 13L81 19" stroke="#332105" stroke-linecap="round" stroke-linejoin="round"/>
<path d="M1 19L41 1" stroke="#332105" stroke-linecap="round" stroke-linejoin="round"/>
<path d="M81 19L41 1" stroke="#332105" stroke-linecap="round" stroke-linejoin="round"/>
</svg>
