<svg width="82" height="20" viewBox="0 0 82 20" fill="none" xmlns="http://www.w3.org/2000/svg">
<path d="M8 16L17 19" stroke="#332105" stroke-linecap="round" stroke-linejoin="round"/>
<path d="M17 12L29 19" stroke="#332105" stroke-linecap="round" stroke-linejoin="round"/>
<path d="M29 6.5L41 19" stroke="#332105" stroke-linecap="round" stroke-linejoin="round"/>
<path d="M53 6.5L41 19" stroke="#332105" stroke-linecap="round" stroke-linejoin="round"/>
<path d="M65 12L53 19" stroke="#332105" stroke-linecap="round" stroke-linejoin="round"/>
<path d="M74 16L65 19" stroke="#332105" stroke-linecap="round" stroke-linejoin="round"/>
<path d="M8 19L8 16" stroke="#332105" stroke-linecap="round" stroke-linejoin="round"/>
<path d="M74 19L74 16" stroke="#332105" stroke-linecap="round" stroke-linejoin="round"/>
<path d="M41 19L41 1" stroke="#332105" stroke-linecap="round" stroke-linejoin="round"/>
<path d="M29 19L29 7" stroke="#332105" stroke-linecap="round" stroke-linejoin="round"/>
<path d="M17 19L17 12" stroke="#332105" stroke-linecap="round" stroke-linejoin="round"/>
<path d="M65 19L65 12" stroke="#332105" stroke-linecap="round" stroke-linejoin="round"/>
<path d="M53 19L53 7" stroke="#332105" stroke-linecap="round" stroke-linejoin="round"/>
<path d="M1 19H81" stroke="#332105" stroke-linecap="round" stroke-linejoin="round"/>
<path d="M1 19L41 1" stroke="#332105" stroke-linecap="round" stroke-linejoin="round"/>
<path d="M81 19L41 1" stroke="#332105" stroke-linecap="round" stroke-linejoin="round"/>
</svg>
