<svg width="53" height="53" viewBox="0 0 53 53" fill="none" xmlns="http://www.w3.org/2000/svg">
<path d="M0 0H53V53H0V0Z" fill="#FFCB38"/>
<path d="M26.5 41.5C34.7843 41.5 41.5 34.7843 41.5 26.5C41.5 18.2157 34.7843 11.5 26.5 11.5C18.2157 11.5 11.5 18.2157 11.5 26.5C11.5 34.7843 18.2157 41.5 26.5 41.5Z" stroke="#332105" stroke-linecap="round"/>
<path d="M18.4526 25.7203L18.4526 25.7203L18.4504 25.7211C18.1781 25.8276 17.9425 25.9571 17.7634 26.1144C17.587 26.2693 17.426 26.4877 17.4015 26.767C17.3756 27.0623 17.512 27.305 17.6886 27.4712C17.8581 27.6307 18.0812 27.7402 18.3169 27.815L18.3192 27.8157L21.8983 28.9322L22.1185 29.0008L22.3136 28.878L30.52 23.7112C30.5251 23.7168 30.5302 23.7228 30.5352 23.7293C30.5353 23.7293 30.5353 23.7294 30.5353 23.7294L23.7729 29.0503L23.5987 29.1874L23.5833 29.4085L23.3268 33.0841C23.3166 33.1712 23.3108 33.3054 23.363 33.4419C23.3944 33.5237 23.4506 33.6163 23.5461 33.6902C23.6429 33.765 23.7496 33.7972 23.8431 33.8051C24.0071 33.8189 24.1396 33.7596 24.1997 33.7297C24.2734 33.6931 24.3403 33.6473 24.3942 33.6068C24.5695 33.4752 24.7681 33.2729 24.8689 33.1703C24.8835 33.1555 24.896 33.1427 24.9061 33.1325L26.3472 31.7443L29.6325 34.1656L29.6566 34.1833L29.6826 34.1981C30.0717 34.4186 30.5362 34.5476 30.9721 34.3502C31.4059 34.1538 31.625 33.7178 31.7271 33.2575L31.7273 33.2567L33.5515 24.9663L33.553 24.9592L33.5544 24.9521L34.1084 22.0347C34.2305 21.4585 34.1542 20.9104 33.7867 20.5523C33.4119 20.187 32.8865 20.166 32.443 20.3262L32.443 20.3261L32.433 20.3299L18.4526 25.7203ZM24.3195 33.2076C24.3194 33.2077 24.3195 33.2055 24.32 33.2007C24.3199 33.2051 24.3196 33.2076 24.3195 33.2076Z" stroke="#332105" stroke-linecap="round"/>
</svg>
