<svg width="35" height="39" viewBox="0 0 35 39" fill="none" xmlns="http://www.w3.org/2000/svg">
<path d="M5.19922 32.1988V31.2988" stroke="#332105" stroke-linecap="round" stroke-linejoin="round"/>
<path d="M4.60156 3C4.60156 1.89543 5.49699 1 6.60156 1H21.8495C22.3339 1 22.8019 1.17584 23.1665 1.49485L25.0009 3.09993L26.215 4.31408C26.5901 4.68915 26.8008 5.19786 26.8008 5.72829V29.599C26.8008 30.7035 25.9054 31.599 24.8008 31.599H6.60156C5.497 31.599 4.60156 30.7035 4.60156 29.599V3Z" fill="#FFCB38" stroke="#332105" stroke-linecap="round" stroke-linejoin="round"/>
<rect width="16.76" height="21.5724" rx="2" transform="matrix(0.999999 -0.00155842 0.00188152 0.999998 17.1992 16.0264)" fill="#FFCB38" stroke="#332105" stroke-linecap="round" stroke-linejoin="round"/>
<rect width="12.57" height="3.92226" rx="1.96113" transform="matrix(0.999999 -0.00149015 0.0019536 0.999998 19.2969 18.4746)" fill="#FFCB38" stroke="#332105" stroke-linecap="round" stroke-linejoin="round"/>
<path d="M27.1719 27.2871L31.3619 27.2804" stroke="#332105" stroke-linecap="round" stroke-linejoin="round"/>
<path d="M27.1797 32.6807L31.3697 32.6739" stroke="#332105" stroke-linecap="round" stroke-linejoin="round"/>
<path d="M27.1875 34.1494L31.3775 34.1427" stroke="#332105" stroke-linecap="round" stroke-linejoin="round"/>
<path d="M19.8398 27.2988L24.0298 27.2921" stroke="#332105" stroke-linecap="round" stroke-linejoin="round"/>
<path d="M21.9258 25.333L21.933 29.2553" stroke="#332105" stroke-linecap="round" stroke-linejoin="round"/>
<path d="M20.4648 31.7939L23.433 34.563" stroke="#332105" stroke-linecap="round" stroke-linejoin="round"/>
<path d="M23.4297 31.79L20.4723 34.5679" stroke="#332105" stroke-linecap="round" stroke-linejoin="round"/>
<rect x="2.80078" y="22.5996" width="11.3996" height="2.9999" rx="1.49995" fill="#FFCB38" stroke="#332105" stroke-linecap="round" stroke-linejoin="round"/>
<rect x="2.80078" y="25.5996" width="11.3996" height="2.9999" rx="1.49995" fill="#FFCB38" stroke="#332105" stroke-linecap="round" stroke-linejoin="round"/>
<rect x="2.80078" y="28.5986" width="11.3996" height="2.9999" rx="1.49995" fill="#FFCB38" stroke="#332105" stroke-linecap="round" stroke-linejoin="round"/>
<rect x="2.80078" y="31.5986" width="11.3996" height="2.9999" rx="1.49995" fill="#FFCB38" stroke="#332105" stroke-linecap="round" stroke-linejoin="round"/>
<rect x="2.80078" y="34.5986" width="11.3996" height="2.9999" rx="1.49995" fill="#FFCB38" stroke="#332105" stroke-linecap="round" stroke-linejoin="round"/>
<circle cx="5.19986" cy="33.9987" r="4.19986" fill="#FFCB38" stroke="#332105" stroke-linecap="round" stroke-linejoin="round"/>
<path d="M22.5977 1V5.19986H26.7975" stroke="#332105" stroke-linecap="round" stroke-linejoin="round"/>
<path d="M7.60156 7H19.0012" stroke="#332105" stroke-linecap="round" stroke-linejoin="round"/>
<path d="M11.8008 10.5996H16.0006" stroke="#332105" stroke-linecap="round" stroke-linejoin="round"/>
<path d="M20.8008 7H23.2007" stroke="#332105" stroke-linecap="round" stroke-linejoin="round"/>
<path d="M7.60156 10.5996H10.0015" stroke="#332105" stroke-linecap="round" stroke-linejoin="round"/>
<path d="M7.60156 8.79883H23.201" stroke="#332105" stroke-linecap="round" stroke-linejoin="round"/>
<path d="M5.14653 34.2963C5.52058 34.4874 6.27607 34.6945 6.25235 35.219C6.22862 35.7434 5.95655 36.4322 5.24841 36.4024C4.54028 36.3725 4.30219 36.1871 4.1247 35.8294" stroke="#332105" stroke-linecap="round" stroke-linejoin="round"/>
<path d="M5.14253 34.2974C4.76849 34.1064 4.01299 33.8992 4.03671 33.3748C4.06044 32.8504 4.33251 32.1615 5.04065 32.1914C5.74878 32.2213 5.98687 32.4066 6.16436 32.7644" stroke="#332105" stroke-linecap="round" stroke-linejoin="round"/>
<path d="M5.20312 31.5977V32.1976" stroke="#332105" stroke-linecap="round" stroke-linejoin="round"/>
<path d="M5.20312 36.3984V36.9984" stroke="#332105" stroke-linecap="round" stroke-linejoin="round"/>
<path d="M8.83403 16.2983C9.20808 16.4893 9.96357 16.6965 9.93985 17.2209C9.91612 17.7453 9.64405 18.4342 8.93591 18.4043C8.22778 18.3744 7.98969 18.1891 7.8122 17.8313" stroke="#332105" stroke-linecap="round" stroke-linejoin="round"/>
<path d="M8.83003 16.2994C8.45599 16.1084 7.70049 15.9012 7.72421 15.3767C7.74794 14.8523 8.02001 14.1635 8.72815 14.1933C9.43628 14.2232 9.67437 14.4086 9.85186 14.7663" stroke="#332105" stroke-linecap="round" stroke-linejoin="round"/>
<path d="M8.88672 13.5996V14.1996" stroke="#332105" stroke-linecap="round" stroke-linejoin="round"/>
<path d="M8.88672 18.4004V19.0004" stroke="#332105" stroke-linecap="round" stroke-linejoin="round"/>
<path d="M12.4317 16.2983C12.8057 16.4893 13.5612 16.6965 13.5375 17.2209C13.5138 17.7453 13.2417 18.4342 12.5336 18.4043C11.8254 18.3744 11.5873 18.1891 11.4099 17.8313" stroke="#332105" stroke-linecap="round" stroke-linejoin="round"/>
<path d="M12.4277 16.2994C12.0536 16.1084 11.2981 15.9012 11.3219 15.3767C11.3456 14.8523 11.6177 14.1635 12.3258 14.1933C13.0339 14.2232 13.272 14.4086 13.4495 14.7663" stroke="#332105" stroke-linecap="round" stroke-linejoin="round"/>
<path d="M12.4883 13.5996V14.1996" stroke="#332105" stroke-linecap="round" stroke-linejoin="round"/>
<path d="M12.4883 18.4004V19.0004" stroke="#332105" stroke-linecap="round" stroke-linejoin="round"/>
</svg>
