<svg width="53" height="53" viewBox="0 0 53 53" fill="none" xmlns="http://www.w3.org/2000/svg">
<path d="M0 0H53V53H0V0Z" fill="#FFCB38"/>
<path d="M15.1611 13.5864L15.169 13.5792C17.1807 11.753 20.2076 11.0077 22.6529 10.7038C23.8878 10.5502 25.0007 10.5063 25.8048 10.5007C26.2072 10.4978 26.5333 10.5046 26.7598 10.5121C26.8731 10.5159 26.9615 10.5198 27.0222 10.5229C27.0526 10.5244 27.076 10.5257 27.0922 10.5267L27.102 10.5272C33.7543 10.5592 37.0355 12.5628 37.887 13.3339C39.2134 14.475 40.1654 16.3605 40.6769 18.8389C41.1904 21.3275 41.27 24.4589 40.8102 28.1512C40.3544 31.8299 38.7688 33.8448 37.1223 34.9657C35.8064 35.8614 34.4332 36.1772 33.7792 36.3275C33.638 36.36 33.5303 36.3848 33.464 36.406C33.4637 36.4061 33.4635 36.4062 33.4632 36.4063L33.3102 35.9302C32.9045 36.0632 29.1324 37.0015 24.3902 36.6911L15.1611 13.5864ZM15.1611 13.5864L15.1534 13.5939C12.9036 15.8197 12.1894 19.0877 12.1098 22.906C12.1072 23.0325 12.1041 23.1635 12.101 23.2985C12.0578 25.1578 11.9967 27.7893 12.7235 30.2224C13.4873 32.7794 15.1299 35.1445 18.5304 36.219L18.5281 36.6896L18.5185 38.5852C18.5114 39.9859 18.5038 41.4438 18.502 41.6787H18.502V41.6825C18.502 41.8605 18.5142 42.0696 18.5802 42.2562C18.6534 42.4633 18.8154 42.6937 19.1219 42.7697L19.1242 42.7702C19.4973 42.8608 19.8691 42.665 20.1057 42.4293L20.1076 42.4273C20.6765 41.8545 21.8504 40.4907 22.8669 39.2894C23.3787 38.6847 23.8557 38.1149 24.2047 37.6964C24.3747 37.4925 24.5145 37.3245 24.6131 37.2057L15.1611 13.5864Z" stroke="#332105" stroke-linecap="round"/>
<path d="M30.3368 23.0449C30.224 23.0449 30.1155 23.0015 30.0337 22.9235C29.952 22.8456 29.9033 22.7392 29.8976 22.6262C29.823 21.129 29.1191 20.3959 27.6826 20.3184C27.5682 20.3093 27.4618 20.2557 27.3862 20.1691C27.3106 20.0825 27.2718 19.9697 27.278 19.8548C27.2842 19.7399 27.3349 19.632 27.4194 19.5541C27.5039 19.4762 27.6154 19.4344 27.7301 19.4377C29.6256 19.5423 30.6793 20.6272 30.7764 22.5823C30.7793 22.6402 30.7708 22.698 30.7514 22.7526C30.7319 22.8072 30.702 22.8574 30.6632 22.9003C30.6244 22.9433 30.5775 22.9781 30.5253 23.003C30.473 23.0278 30.4164 23.042 30.3587 23.0449H30.3368Z" fill="#332105"/>
<path d="M32.5922 23.8046H32.5818C32.4651 23.8019 32.3543 23.7528 32.2737 23.6682C32.1931 23.5836 32.1494 23.4704 32.152 23.3535C32.186 21.8458 31.7562 20.6249 30.8383 19.6212C29.9203 18.6175 28.6697 18.0733 27.0025 17.9508C26.8859 17.9423 26.7774 17.8877 26.701 17.799C26.6246 17.7103 26.5864 17.5948 26.5949 17.478C26.6034 17.3611 26.6579 17.2524 26.7464 17.1758C26.8349 17.0992 26.9501 17.061 27.0667 17.0695C28.9428 17.2072 30.4299 17.865 31.4873 19.0241C32.5447 20.1833 33.0705 21.6496 33.0319 23.3718C33.0296 23.4872 32.9822 23.5972 32.9001 23.6781C32.8179 23.7589 32.7074 23.8044 32.5922 23.8046Z" fill="#332105"/>
<path d="M34.9036 24.7107C34.7874 24.7105 34.676 24.6644 34.5936 24.5824C34.5111 24.5004 34.4644 24.3891 34.4634 24.2726C34.443 21.576 33.6681 19.5162 32.0943 17.9766C30.5394 16.459 28.575 15.6803 26.255 15.6636C26.1383 15.6631 26.0265 15.6163 25.9442 15.5332C25.862 15.4502 25.816 15.3378 25.8164 15.2208C25.8168 15.1038 25.8636 14.9918 25.9464 14.9094C26.0293 14.8269 26.1414 14.7808 26.2582 14.7813H26.2618C28.8162 14.8001 30.9853 15.6625 32.7089 17.3455C34.4326 19.0285 35.3213 21.3614 35.3443 24.2674C35.3451 24.3843 35.2996 24.4968 35.2178 24.5801C35.1359 24.6634 35.0244 24.7107 34.9078 24.7117L34.9036 24.7107Z" fill="#332105"/>
<path d="M22.5586 22.6879C22.5672 22.7169 22.5798 22.758 22.5968 22.8097C22.6354 22.9273 22.6962 23.0997 22.7832 23.3116C22.9575 23.7362 23.2352 24.3151 23.6465 24.9275C24.4624 26.1424 25.7884 27.4687 27.8658 28.0163C27.8712 28.0163 27.8771 28.0162 27.8836 28.0161C27.9256 28.0151 27.9845 28.0108 28.0489 27.9982C28.1858 27.9715 28.2926 27.919 28.3558 27.842L29.0016 27.0278C29.4703 26.4236 30.498 26.1171 31.4487 26.6479L31.4531 26.6504L31.4531 26.6504C32.0225 26.9758 32.5752 27.3296 33.1093 27.7104L33.1157 27.715L33.1156 27.715C33.3726 27.9044 33.756 28.2128 34.0685 28.4677C34.2262 28.5964 34.3685 28.7136 34.4712 28.7984L34.4988 28.8211H34.5028L34.6426 28.9394C34.963 29.2105 35.1783 29.5629 35.2467 29.9693C35.3083 30.3354 35.2452 30.7113 35.0808 31.0708V31.0969L35.0141 31.2127C34.6282 31.8831 34.1383 32.4878 33.5627 33.0039L33.5128 33.0486L33.5024 33.0539C33.0014 33.4654 32.472 33.7319 31.9162 33.8011C31.8231 33.8164 31.7288 33.8224 31.6346 33.8188C31.3867 33.8197 31.1403 33.781 30.9046 33.704L30.7426 33.6511L30.7318 33.6352C29.9755 33.3962 28.8182 32.8837 27.0306 31.8954M22.5586 22.6879L27.2715 31.4573M22.5586 22.6879C22.5586 22.6838 22.5586 22.6793 22.5587 22.6747C22.5596 22.6325 22.5638 22.5736 22.5762 22.5091C22.6027 22.3719 22.6551 22.2649 22.7325 22.2017L23.5452 21.5542C24.1489 21.0851 24.453 20.0545 23.9244 19.1042L23.9244 19.1042L23.9221 19.1002C23.5975 18.5291 23.2445 17.9746 22.8645 17.4388L22.8646 17.4388L22.8604 17.4332C22.6721 17.1753 22.365 16.7909 22.1107 16.4775C21.9823 16.3193 21.8652 16.1766 21.7799 16.0732L21.6783 15.9502L21.6499 15.916L21.6417 15.9062L21.6383 15.9021L21.6375 15.9012C21.6372 15.9008 21.6368 15.9005 21.6365 15.9001C21.3663 15.5811 21.0149 15.3664 20.6094 15.2984C20.2435 15.2369 19.8678 15.3005 19.5086 15.4656H19.4837L19.3677 15.5326C18.6984 15.9191 18.0949 16.4101 17.58 16.987L17.5355 17.0369L17.53 17.0479C17.1213 17.5513 16.8561 18.0811 16.7843 18.6353C16.7687 18.7293 16.7628 18.8247 16.7668 18.9199C16.7659 19.1674 16.8043 19.4135 16.8806 19.649L16.9331 19.8112L16.9492 19.8221C17.1875 20.5806 17.6989 21.7398 18.6851 23.532C19.3059 24.6727 20.0219 25.7587 20.8253 26.7784L22.5586 22.6879ZM27.0306 31.8954C27.0303 31.8953 27.03 31.8951 27.0296 31.8949L27.2715 31.4573M27.0306 31.8954C27.031 31.8957 27.0314 31.8959 27.0318 31.8961L27.2715 31.4573M27.0306 31.8954C25.8922 31.2733 24.8084 30.5558 23.7908 29.7504M27.2715 31.4573C26.1575 30.8486 25.0968 30.1464 24.101 29.3583M23.7908 29.7504L24.101 29.3583M23.7908 29.7504C23.7908 29.7504 23.7907 29.7504 23.7907 29.7504L24.101 29.3583M23.7908 29.7504C23.2766 29.3438 22.7862 28.9079 22.3219 28.4449L22.321 28.444L22.273 28.3958L22.2249 28.3477L22.2249 28.3477L22.5789 27.9945L24.101 29.3583M22.1794 28.3021C22.1805 28.3032 22.1816 28.3042 22.1827 28.3053L22.5308 27.9464L22.1769 28.2995L22.1794 28.3021ZM33.5838 32.9822C33.5831 32.9829 33.581 32.9851 33.5778 32.9883L33.5826 32.9834L33.5838 32.9822ZM33.5378 33.0242L33.2585 32.6908L33.2169 32.641L33.4178 33.0087L33.4554 33.0774L33.4567 33.0798C33.4676 33.0738 33.4784 33.0674 33.4892 33.0604L33.5378 33.0242ZM17.6006 16.9669L17.5956 16.9718C17.5988 16.9685 17.601 16.9664 17.6018 16.9657L17.6006 16.9669ZM17.602 16.9655C17.6021 16.9655 17.6024 16.9652 17.602 16.9656L17.602 16.9656C17.602 16.9655 17.602 16.9655 17.602 16.9655Z" stroke="#332105" stroke-linecap="round"/>
</svg>
