<svg width="53" height="53" viewBox="0 0 53 53" fill="none" xmlns="http://www.w3.org/2000/svg">
<path d="M0 0H53V53H0V0Z" fill="#FFCB38"/>
<path d="M17.903 39.9872C20.3914 41.5824 23.3368 42.5 26.5039 42.5C35.3265 42.5 42.5 35.3223 42.5 26.5C42.5 17.6777 35.3265 10.5 26.5039 10.5H26.4961C17.6735 10.5 10.5 17.6757 10.5 26.5C10.5 29.9067 11.5691 33.0723 13.3955 35.6682L11.5451 41.1842L11.2311 42.12L12.1714 41.8194L17.903 39.9872Z" stroke="#332105" stroke-linecap="round"/>
<path d="M34.2068 32.1456L34.2067 32.1459C34.0083 32.7477 33.5378 33.2489 33.0312 33.6172C32.5182 33.9901 31.9122 34.2681 31.3593 34.3964L31.3577 34.3968C30.9826 34.4826 30.5322 34.56 29.7872 34.4331C29.0655 34.3101 28.0784 33.9978 26.6066 33.3423C24.6506 32.4719 23.064 30.9813 21.9534 29.6993C21.3953 29.0551 20.9511 28.4562 20.6345 28.0017C20.476 27.7742 20.3495 27.5828 20.2567 27.4401C20.2196 27.3829 20.1877 27.3332 20.1619 27.2932C20.1557 27.2835 20.1498 27.2743 20.1443 27.2658L20.1097 27.2123L20.0993 27.1966C20.0981 27.1948 20.0972 27.1935 20.0967 27.1927C20.0962 27.192 20.096 27.1917 20.096 27.1918L20.0903 27.1836L20.0903 27.1836C20.0855 27.1764 20.0798 27.1681 20.0733 27.1585C19.9575 26.9889 19.5845 26.4426 19.2328 25.6978C18.8643 24.9174 18.5 23.8802 18.5 22.7992C18.5 20.7098 19.478 19.6406 19.8939 19.1859C19.9049 19.1739 19.9154 19.1624 19.9256 19.1512L19.9257 19.1511C20.359 18.676 21.0231 18.5 21.5902 18.5C21.7471 18.5 21.8898 18.5078 22.0064 18.5141C22.0176 18.5147 22.0285 18.5153 22.0392 18.5159C22.0452 18.5162 22.0513 18.5165 22.0576 18.5167C22.2262 18.5241 22.5013 18.5362 22.7513 18.7117C23.0034 18.8886 23.1556 19.1737 23.2847 19.5058L23.2851 19.5068C23.3818 19.757 23.5191 20.1148 23.6649 20.4949C23.9889 21.3392 24.3553 22.294 24.4139 22.4275C24.51 22.6416 24.6901 23.0978 24.4658 23.5748C24.328 23.8882 24.1928 24.0551 24.0268 24.2598C24.0147 24.2748 24.0023 24.29 23.9898 24.3055C23.9047 24.4109 23.8206 24.5068 23.7443 24.5937C23.7298 24.6102 23.7157 24.6264 23.7018 24.6422C23.6128 24.7441 23.5315 24.8393 23.4494 24.9484L23.442 24.9582L23.4419 24.9581L23.4376 24.9636C23.393 25.0199 23.3646 25.0558 23.3405 25.092C23.3176 25.1265 23.3099 25.1452 23.3072 25.1535C23.3057 25.1584 23.3054 25.1602 23.306 25.1661C23.307 25.174 23.3118 25.2024 23.3403 25.2558C23.5518 25.6398 24.2654 26.8856 25.3016 27.8764L25.3016 27.8764C26.5367 29.0574 27.5447 29.4946 28.0159 29.6989C28.0584 29.7173 28.0965 29.7338 28.13 29.7488C28.2042 29.7817 28.2761 29.7897 28.3313 29.7817C28.382 29.7742 28.4165 29.7545 28.4421 29.7257C28.6641 29.4681 28.9375 29.0555 29.246 28.5897C29.2939 28.5173 29.3427 28.4436 29.3923 28.3691L34.2068 32.1456ZM34.2068 32.1456C34.3723 31.6429 34.4563 31.1741 34.4865 30.8008C34.5016 30.6146 34.5039 30.4454 34.4941 30.3029C34.4861 30.1854 34.4663 30.0113 34.3912 29.8687L34.3912 29.8687L34.3895 29.8654C34.2754 29.6526 34.0867 29.5285 33.9537 29.4505C33.8756 29.4046 33.7691 29.3493 33.6632 29.2943C33.5993 29.2612 33.5356 29.2281 33.4784 29.1973L33.4769 29.1965C33.2897 29.0964 32.7423 28.8054 32.1982 28.5231C31.6794 28.2539 31.1124 27.9654 30.8992 27.8842M34.2068 32.1456L33.2411 29.6374M30.7174 28.35C31.0594 28.4776 32.869 29.4384 33.2411 29.6374M30.7174 28.35L30.9053 27.8866C30.9032 27.8858 30.9012 27.885 30.8992 27.8842M30.7174 28.35L30.8922 27.8815C30.8945 27.8824 30.8968 27.8833 30.8992 27.8842M30.7174 28.35L30.8992 27.8842M33.2411 29.6374C33.3179 29.6788 33.3894 29.7158 33.4552 29.7498M33.2411 29.6374L33.4552 29.7498M33.4552 29.7498C33.7079 29.8805 33.8772 29.9681 33.9488 30.1017L33.4552 29.7498Z" stroke="#332105" stroke-linecap="round"/>
</svg>
