<svg width="51" height="51" viewBox="0 0 51 51" fill="none" xmlns="http://www.w3.org/2000/svg">
<rect width="51" height="51" fill="#FFCB38"/>
<path d="M32.8378 27.9678C32.5321 29.7869 31.8263 31.5082 30.7744 32.9979L28.9209 35.0532C28.5 35.4195 28.0546 35.7547 27.5882 36.0564C26.5471 36.7394 26.2945 36.958 24.2059 37.5365C22.1173 38.115 20.8581 38.1928 18.7941 37.5365C13.6358 36.2352 10.0036 31.4458 10 25.9405V13.3136C10.0003 9.82667 12.7258 7.00031 16.0883 7H26.912C30.2742 7.00031 32.9997 9.82667 33 13.3136V19.8728L32.8378 27.9678Z" fill="#FFCB38" stroke="#332105" stroke-linecap="round" stroke-linejoin="round"/>
<path d="M13.7728 15H29.2272C29.654 15 30 15.4478 30 16V24C30 24.5522 29.654 25 29.2272 25H13.7728C13.346 25 13 24.5522 13 24V16C13 15.4478 13.346 15 13.7728 15Z" fill="#FFCB38" stroke="#332105" stroke-linecap="round" stroke-linejoin="round"/>
<path d="M8.09091 15H9.90909C9.95929 15 10 15.2687 10 15.6V20.4C10 20.7313 9.95929 21 9.90909 21H8.09091C8.04071 21 8 20.7313 8 20.4V15.6C8 15.2687 8.04071 15 8.09091 15Z" fill="#FFCB38" stroke="#332105" stroke-linecap="round" stroke-linejoin="round"/>
<path d="M33.0909 15H34.9091C34.9593 15 35 15.2687 35 15.6V20.4C35 20.7313 34.9593 21 34.9091 21H33.0909C33.0407 21 33 20.7313 33 20.4V15.6C33 15.2687 33.0407 15 33.0909 15Z" fill="#FFCB38" stroke="#332105" stroke-linecap="round" stroke-linejoin="round"/>
<path d="M15.5909 17H27.4091C27.7354 17 28 17.2687 28 17.6V22.4C28 22.7313 27.7354 23 27.4091 23H15.5909C15.2646 23 15 22.7313 15 22.4V17.6C15 17.2687 15.2646 17 15.5909 17Z" fill="#FFCB38" stroke="#332105" stroke-linecap="round" stroke-linejoin="round"/>
<path d="M17.0909 12H18.9091C18.9593 12 19 12.1343 19 12.3V14.7C19 14.8657 18.9593 15 18.9091 15H17.0909C17.0407 15 17 14.8657 17 14.7V12.3C17 12.1343 17.0407 12 17.0909 12Z" fill="#FFCB38" stroke="#332105" stroke-linecap="round" stroke-linejoin="round"/>
<path d="M24.0909 12H25.9091C25.9593 12 26 12.1343 26 12.3V14.7C26 14.8657 25.9593 15 25.9091 15H24.0909C24.0407 15 24 14.8657 24 14.7V12.3C24 12.1343 24.0407 12 24.0909 12Z" fill="#FFCB38" stroke="#332105" stroke-linecap="round" stroke-linejoin="round"/>
<path d="M6 40L36 39" stroke="#332105" stroke-linecap="round" stroke-linejoin="round"/>
<path d="M12.5 44L37.5 40" stroke="#332105" stroke-linecap="round" stroke-linejoin="round"/>
<path d="M31.088 30.681L30.3444 31.7706C29.9939 32.2842 29.8616 32.916 29.977 33.5272C30.0923 34.1382 30.4459 34.6786 30.9594 35.0288L31.923 35.6864L31.4914 37.0541L30.6013 37.6231L29.6377 36.9656C27.5016 35.5036 26.9514 32.589 28.4076 30.4489L29.9773 28.149L31.085 29.0877L31.088 30.681Z" fill="#FFCB38" stroke="#332105" stroke-linecap="round" stroke-linejoin="round"/>
<path d="M34.8261 34.0665L36.0193 34.8811C36.2868 35.0634 36.3557 35.4281 36.1731 35.6957C35.9907 35.9629 36.0596 36.3277 36.3269 36.5103L39.232 38.4926C39.3605 38.5803 39.4488 38.7154 39.4776 38.8681C39.5065 39.021 39.4735 39.179 39.3858 39.3072L39.0553 39.7914C38.873 40.0589 38.9419 40.4237 39.2091 40.6061L41.4698 42.195C42.0046 42.56 42.1422 43.2892 41.7773 43.824L40.4556 45.7608C40.0906 46.2956 39.3611 46.4333 38.8263 46.0683L30.472 40.3209C30.3435 40.2332 30.2552 40.0984 30.2264 39.9455L30.0089 38.7936C29.9801 38.6407 30.0131 38.4827 30.1008 38.3545L32.5072 34.8279C32.5726 34.7324 32.6647 34.6582 32.7719 34.6148L34.2761 34.0072C34.4579 33.9338 34.6643 33.9561 34.8261 34.0665Z" fill="#FFCB38" stroke="#332105" stroke-linecap="round" stroke-linejoin="round"/>
<path d="M41.9022 11.3544C42.6614 10.8157 43.4306 11.3405 43.2058 12.244C42.8258 13.6781 42.2757 15.0616 41.567 16.365C40.7459 17.5685 39.4298 18.1002 38.6273 17.5532C37.825 17.0059 37.8406 15.5862 38.6617 14.383C39.6173 13.2479 40.7051 12.2311 41.9022 11.3544Z" fill="#FFCB38" stroke="#332105" stroke-linecap="round" stroke-linejoin="round"/>
<path d="M38.9119 21.2946L35.2821 26.6206L32.8115 26.0789L31.4134 23.9805L35.0431 18.6543C35.2175 18.398 35.4867 18.2216 35.7916 18.164C36.0964 18.1065 36.4114 18.1727 36.6672 18.3477L38.6052 19.6702C38.8615 19.8446 39.038 20.1141 39.0955 20.4187C39.153 20.7235 39.0868 21.0385 38.9119 21.2946Z" fill="#FFCB38" stroke="#332105" stroke-linecap="round" stroke-linejoin="round"/>
<path d="M35.2833 26.6187L32.2401 31.0706C32.1209 31.2475 31.9148 31.3455 31.7023 31.326C31.4901 31.3064 31.3051 31.1726 31.2202 30.9769L29.5552 27.181C29.4715 26.9964 29.4921 26.7811 29.6095 26.6158L31.4146 23.9786L35.2833 26.6187Z" fill="#FFCB38" stroke="#332105" stroke-linecap="round" stroke-linejoin="round"/>
</svg>
