<svg width="45" height="43" viewBox="0 0 45 43" fill="none" xmlns="http://www.w3.org/2000/svg">
<path d="M27.8378 21.9678C27.5321 23.7869 26.8263 25.5082 25.7744 26.9979L23.9209 29.0532C23.5 29.4195 23.0546 29.7547 22.5882 30.0564C21.5471 30.7394 21.2945 30.958 19.2059 31.5365C17.1173 32.115 15.8581 32.1928 13.7941 31.5365C8.63582 30.2352 5.00359 25.4458 5 19.9405V7.31361C5.0003 3.82667 7.72581 1.00031 11.0883 1H21.912C25.2742 1.00031 27.9997 3.82667 28 7.31361V13.8728L27.8378 21.9678Z" fill="#FFCB38" stroke="#332105" stroke-linecap="round" stroke-linejoin="round"/>
<path d="M8.77277 9H24.2272C24.654 9 25 9.44781 25 10V18C25 18.5522 24.654 19 24.2272 19H8.77277C8.34604 19 8 18.5522 8 18V10C8 9.44781 8.34604 9 8.77277 9Z" fill="#FFCB38" stroke="#332105" stroke-linecap="round" stroke-linejoin="round"/>
<path d="M3.09091 9H4.90909C4.95929 9 5 9.26868 5 9.60003V14.4C5 14.7313 4.95929 15 4.90909 15H3.09091C3.04071 15 3 14.7313 3 14.4V9.60003C3 9.26868 3.04071 9 3.09091 9Z" fill="#FFCB38" stroke="#332105" stroke-linecap="round" stroke-linejoin="round"/>
<path d="M28.0909 9H29.9091C29.9593 9 30 9.26868 30 9.60003V14.4C30 14.7313 29.9593 15 29.9091 15H28.0909C28.0407 15 28 14.7313 28 14.4V9.60003C28 9.26868 28.0407 9 28.0909 9Z" fill="#FFCB38" stroke="#332105" stroke-linecap="round" stroke-linejoin="round"/>
<path d="M10.5909 11H22.4091C22.7354 11 23 11.2687 23 11.6V16.4C23 16.7313 22.7354 17 22.4091 17H10.5909C10.2646 17 10 16.7313 10 16.4V11.6C10 11.2687 10.2646 11 10.5909 11Z" fill="#FFCB38" stroke="#332105" stroke-linecap="round" stroke-linejoin="round"/>
<path d="M12.0909 6H13.9091C13.9593 6 14 6.13434 14 6.30001V8.69999C14 8.86566 13.9593 9 13.9091 9H12.0909C12.0407 9 12 8.86566 12 8.69999V6.30001C12 6.13434 12.0407 6 12.0909 6Z" fill="#FFCB38" stroke="#332105" stroke-linecap="round" stroke-linejoin="round"/>
<path d="M19.0909 6H20.9091C20.9593 6 21 6.13434 21 6.30001V8.69999C21 8.86566 20.9593 9 20.9091 9H19.0909C19.0407 9 19 8.86566 19 8.69999V6.30001C19 6.13434 19.0407 6 19.0909 6Z" fill="#FFCB38" stroke="#332105" stroke-linecap="round" stroke-linejoin="round"/>
<path d="M1 34L31 33" stroke="#332105" stroke-linecap="round" stroke-linejoin="round"/>
<path d="M7.5 38L32.5 34" stroke="#332105" stroke-linecap="round" stroke-linejoin="round"/>
<path d="M26.088 24.681L25.3444 25.7706C24.9939 26.2842 24.8616 26.916 24.977 27.5272C25.0923 28.1382 25.4459 28.6786 25.9594 29.0288L26.923 29.6864L26.4914 31.0541L25.6013 31.6231L24.6377 30.9656C22.5016 29.5036 21.9514 26.589 23.4076 24.4489L24.9773 22.149L26.085 23.0877L26.088 24.681Z" fill="#FFCB38" stroke="#332105" stroke-linecap="round" stroke-linejoin="round"/>
<path d="M29.8261 28.0665L31.0193 28.8811C31.2868 29.0634 31.3557 29.4281 31.1731 29.6957C30.9907 29.9629 31.0596 30.3277 31.3269 30.5103L34.232 32.4926C34.3605 32.5803 34.4488 32.7154 34.4776 32.8681C34.5065 33.021 34.4735 33.179 34.3858 33.3072L34.0553 33.7914C33.873 34.0589 33.9419 34.4237 34.2091 34.6061L36.4698 36.195C37.0046 36.56 37.1422 37.2892 36.7773 37.824L35.4556 39.7608C35.0906 40.2956 34.3611 40.4333 33.8263 40.0683L25.472 34.3209C25.3435 34.2332 25.2552 34.0984 25.2264 33.9455L25.0089 32.7936C24.9801 32.6407 25.0131 32.4827 25.1008 32.3545L27.5072 28.8279C27.5726 28.7324 27.6647 28.6582 27.7719 28.6148L29.2761 28.0072C29.4579 27.9338 29.6643 27.9561 29.8261 28.0665Z" fill="#FFCB38" stroke="#332105" stroke-linecap="round" stroke-linejoin="round"/>
<path d="M36.9022 5.35443C37.6614 4.81571 38.4306 5.34046 38.2058 6.24398C37.8258 7.67805 37.2757 9.0616 36.567 10.365C35.7459 11.5685 34.4298 12.1002 33.6273 11.5532C32.825 11.0059 32.8406 9.58625 33.6617 8.38303C34.6173 7.24787 35.7051 6.23109 36.9022 5.35443Z" fill="#FFCB38" stroke="#332105" stroke-linecap="round" stroke-linejoin="round"/>
<path d="M33.9119 15.2946L30.2821 20.6206L27.8115 20.0789L26.4134 17.9805L30.0431 12.6543C30.2175 12.398 30.4867 12.2216 30.7916 12.164C31.0964 12.1065 31.4114 12.1727 31.6672 12.3477L33.6052 13.6702C33.8615 13.8446 34.038 14.1141 34.0955 14.4187C34.153 14.7235 34.0868 15.0385 33.9119 15.2946Z" fill="#FFCB38" stroke="#332105" stroke-linecap="round" stroke-linejoin="round"/>
<path d="M30.2833 20.6187L27.2401 25.0706C27.1209 25.2475 26.9148 25.3455 26.7023 25.326C26.4901 25.3064 26.3051 25.1726 26.2202 24.9769L24.5552 21.181C24.4715 20.9964 24.4921 20.7811 24.6095 20.6158L26.4146 17.9786L30.2833 20.6187Z" fill="#FFCB38" stroke="#332105" stroke-linecap="round" stroke-linejoin="round"/>
</svg>
